<svg width="97" height="97" viewBox="0 0 97 97" fill="none" xmlns="http://www.w3.org/2000/svg">
<path d="M61.9543 87.6353L62.1043 82.6353H50.2043L50.0543 87.6353H61.9043H61.9543Z" fill="#4C4EAA"/>
<path d="M67.6543 93.6353L61.9043 87.6353H50.0543L49.8043 93.6353H67.6543Z" fill="white"/>
<path d="M67.5543 96.6353L67.6543 93.6353H49.8043L49.6543 96.6353H67.5543Z" fill="#EEA160"/>
<path d="M62.5543 73.4353C62.5543 71.8353 61.921 70.4686 60.6543 69.3353C59.421 68.2019 57.9043 67.6353 56.1043 67.6353C54.3376 67.6353 52.821 68.2019 51.5543 69.3353C50.2876 70.4686 49.6543 71.8353 49.6543 73.4353L50.2043 82.6353H62.1043L62.5543 73.4353Z" fill="#676AC6"/>
<path d="M35.3543 87.6353L35.2043 82.6353H47.1043L47.2543 87.6353H35.4043H35.3543Z" fill="#4C4EAA"/>
<path d="M29.6543 93.6353L35.4043 87.6353H47.2543L47.5043 93.6353H29.6543Z" fill="white"/>
<path d="M29.7543 96.6353L29.6543 93.6353H47.5043L47.6543 96.6353H29.7543Z" fill="#EEA160"/>
<path d="M34.7543 73.4353C34.7543 71.8353 35.3876 70.4686 36.6543 69.3353C37.8876 68.2019 39.4043 67.6353 41.2043 67.6353C42.971 67.6353 44.4876 68.2019 45.7543 69.3353C47.021 70.4686 47.6543 71.8353 47.6543 73.4353L47.1043 82.6353H35.2043L34.7543 73.4353Z" fill="#676AC6"/>
<path d="M70.7395 69.9304C68.7336 68.5302 66.8525 66.9219 65.0961 65.1054C66.9317 61.7323 69.8122 58.967 73.7377 56.8095C74.4603 57.5898 75.2163 58.31 76.0057 58.9701C77.7989 60.5204 79.8522 61.7435 82.1658 62.6395C83.6681 63.2146 84.7544 64.2476 85.4247 65.7386C86.0541 67.2531 86.0931 68.7819 85.5416 70.325C84.9343 71.8187 83.8691 72.8964 82.3459 73.5581C80.8872 74.237 79.3745 74.2802 77.8077 73.6879C76.0007 72.9621 74.3087 72.1291 72.7316 71.1889C72.0429 70.7973 71.3788 70.3778 70.7395 69.9304Z" fill="#BF7958"/>
<path d="M59.1266 52.9979C59.5815 51.4289 60.5234 50.2319 61.9522 49.407C63.4047 48.6229 64.895 48.4701 66.4232 48.9486C68.0008 49.3713 69.1904 50.2767 69.9917 51.6647C71.0587 53.607 72.3073 55.322 73.7377 56.8095C69.8123 58.967 66.9317 61.7323 65.0962 65.1054C63.0397 62.8635 61.2188 60.3223 59.6333 57.4818C58.9049 56.0789 58.736 54.5842 59.1266 52.9979Z" fill="#E7F3FC"/>
<path d="M65.3313 67.7049L62.3846 64.793L72.9677 54.2739L75.8791 57.1245L65.3313 67.7049Z" fill="#BFD4E5"/>
<path d="M23.8046 67.6348C26.1045 66.8015 28.3378 65.7349 30.5044 64.4349C29.6044 60.7017 27.5378 57.2851 24.3046 54.1852C23.4046 54.7519 22.488 55.2519 21.5547 55.6852C19.4214 56.7185 17.1215 57.3685 14.6549 57.6351C13.0549 57.8018 11.7383 58.5184 10.705 59.7851C9.70503 61.085 9.27171 62.5517 9.40504 64.1849C9.60503 65.7849 10.355 67.1015 11.655 68.1348C12.8883 69.1681 14.3382 69.6014 16.0048 69.4348C17.9381 69.2015 19.7881 68.8348 21.5547 68.3348C22.3213 68.1348 23.0713 67.9015 23.8046 67.6348Z" fill="#BF7958"/>
<path d="M39.4042 54.2852C39.3708 52.652 38.7709 51.252 37.6042 50.0854C36.4043 48.9521 35.0043 48.4187 33.4044 48.4854C31.7711 48.4854 30.3878 49.0521 29.2545 50.1854C27.7212 51.7853 26.0712 53.1186 24.3046 54.1852C27.5379 57.2851 29.6045 60.7017 30.5044 64.4349C33.071 62.8016 35.4876 60.8184 37.7542 58.4851C38.8209 57.3185 39.3708 55.9185 39.4042 54.2852Z" fill="#E7F3FC"/>
<path d="M29.6045 66.8848L33.2043 64.8349L25.7046 51.9353L22.1547 53.9352L29.6045 66.8848Z" fill="#BFD4E5"/>
<path d="M63.2543 73.5352V68.5852H33.2043V73.5352H63.2543Z" fill="#BFD4E5"/>
<path d="M61.7543 78.7352C62.6877 77.4686 63.1877 75.7352 63.2543 73.5352H33.2043C33.271 75.7352 33.771 77.4686 34.7043 78.7352H61.7543Z" fill="#676AC6"/>
<path d="M66.4543 54.9352C67.1543 51.3352 66.2876 49.6019 63.8543 49.7352H32.5543C30.121 49.6019 29.2543 51.3352 29.9543 54.9352L33.2043 68.5852H63.2543L66.4543 54.9352Z" fill="#E7F3FC"/>
<path d="M56.2543 42.2852C54.1543 40.5852 51.6377 39.7352 48.7043 39.7352C45.771 39.7352 43.2543 40.5852 41.1543 42.2852C39.0877 44.0852 38.0543 46.2352 38.0543 48.7352C38.0543 48.9019 38.071 49.0686 38.1043 49.2352C38.2043 51.5019 39.221 53.4352 41.1543 55.0352C43.2543 56.8352 45.771 57.7352 48.7043 57.7352C51.6377 57.7352 54.1543 56.8352 56.2543 55.0352C58.1877 53.4352 59.2043 51.5019 59.3043 49.2352C59.3377 49.0686 59.3543 48.9019 59.3543 48.7352C59.3543 46.2352 58.321 44.0852 56.2543 42.2852Z" fill="#A8603F"/>
<path d="M45.5043 68.7852L31.4043 70.0352C31.671 71.6686 31.9543 73.4019 32.2543 75.2352L44.7043 73.7352C45.0376 72.2019 45.3043 70.5519 45.5043 68.7852Z" fill="#D78B49"/>
<path d="M45.5043 68.7852C45.7377 66.4519 45.821 63.9352 45.7543 61.2352C41.2543 58.4019 37.6877 54.1019 35.0543 48.3352L30.5043 47.4852C29.1377 49.9519 29.4377 57.4686 31.4043 70.0352L45.5043 68.7852Z" fill="#EEA160"/>
<path d="M65.5043 70.0352L51.4043 68.7852C51.6043 70.5519 51.871 72.2019 52.2043 73.7352L64.6543 75.2352C64.9543 73.4019 65.2376 71.6686 65.5043 70.0352Z" fill="#D78B49"/>
<path d="M51.1543 61.2352C51.0876 63.9352 51.171 66.4519 51.4043 68.7852L65.5043 70.0352C67.471 57.4686 67.771 49.9519 66.4043 47.4852L61.8543 48.3352C59.221 54.1019 55.6543 58.4019 51.1543 61.2352Z" fill="#EEA160"/>
<path d="M35.6043 48.7352L33.5543 52.3352L46.6543 59.9352L48.7043 56.2852L35.6043 48.7352ZM61.8043 48.7352L48.7043 56.2852L50.7543 59.9352L63.8543 52.3352L61.8043 48.7352Z" fill="#BFD4E5"/>
<path d="M50.7543 59.9352L48.7043 56.2852L46.6543 59.9352H50.7543Z" fill="#E7F3FC"/>
<path d="M89.7984 61.8478L88.94 61.4377C84.9942 60.1625 81.5531 60.1069 78.6167 61.271C84.8102 57.5603 88.5592 57.7435 89.8637 61.8207L89.7984 61.8478Z" fill="#A8603F"/>
<path d="M75.0491 73.2694C74.2305 72.8939 74.0063 72.2597 74.3765 71.3667L78.6167 61.271C81.5531 60.1069 84.9942 60.1625 88.94 61.4377L89.7984 61.8477L89.8637 61.8207C90.8926 62.2112 91.9703 62.6581 93.0968 63.1612L93.4663 63.3144C94.3285 63.6719 94.6082 64.5637 94.3056 65.9899C93.9323 68.1085 93.3473 70.0851 92.5505 71.9198C90.3493 77.1416 84.7926 77.7063 75.8804 73.6141L75.0491 73.2694Z" fill="#BF7958"/>
<path d="M63.2992 41.2352C59.3799 38.6352 54.6317 37.3352 49.0544 37.3352C43.477 37.3352 38.6785 38.6352 34.6588 41.2352C30.7396 43.9019 28.78 47.0852 28.78 50.7852C28.78 54.4852 30.7396 57.6352 34.6588 60.2352C38.6785 62.9019 43.477 64.2352 49.0544 64.2352C54.6317 64.2352 59.3799 62.9019 63.2992 60.2352C67.3188 57.6352 69.3287 54.4852 69.3287 50.7852C69.3287 47.0852 67.3188 43.9019 63.2992 41.2352Z" fill="url(#paint0_radial_26_31)"/>
<path d="M67.1499 9.54696L64.7995 4.6902C55.2217 2.79526 46.1321 2.03153 37.5308 2.39903C32.719 2.50606 30.3031 4.50498 30.2832 8.3958L30.2838 10.1075C31.1885 7.83071 33.4576 6.65363 37.0914 6.57627C45.6888 6.24188 54.7764 7.02216 64.3542 8.9171L67.1499 9.54696ZM77.066 15.1398L77.3606 13.9158C78.2627 10.2291 76.7224 7.76628 72.7396 6.52736L67.7838 9.72197L72.3001 10.7046C75.0852 11.5681 76.6738 13.0465 77.066 15.1398Z" fill="#454A51"/>
<path d="M72.3001 10.7046L67.7839 9.72198L67.3516 9.97336L67.1499 9.54697L64.3543 8.91711C54.7764 7.02217 45.6888 6.24189 37.0914 6.57628C33.4577 6.65364 31.1885 7.83072 30.2839 10.1075L30.2593 29.6375C30.2858 32.5605 32.004 34.2219 35.4139 34.6217L66.3023 38.2435C69.7454 38.6472 71.8013 37.4283 72.4701 34.5869L77.0661 15.1398C76.6738 13.0466 75.0852 11.5682 72.3001 10.7046Z" fill="#3C3E41"/>
<path d="M27.3321 28.8412C25.5937 30.2148 24.5944 32.0106 24.3343 34.2288C24.0743 36.4469 24.631 38.4252 26.0046 40.1636C27.4035 41.9722 29.1789 43.0026 31.3308 43.2549C33.5158 43.5111 35.498 42.9213 37.2773 41.4854C38.9827 40.108 39.9654 38.3102 40.2255 36.092C40.4855 33.8739 39.9453 31.8975 38.6049 30.163C37.206 28.3544 35.414 27.3221 33.229 27.0659C31.0771 26.8135 29.1115 27.4053 27.3321 28.8412ZM28.5509 38.1968C27.7326 37.1611 27.4031 35.9646 27.5622 34.6072C27.7136 33.3161 28.311 32.2282 29.3545 31.3437C30.3901 30.5255 31.5535 30.192 32.8447 30.3434C34.2021 30.5026 35.2899 31.1 36.1082 32.1356C36.9187 33.2375 37.2483 34.434 37.0969 35.7252C36.9377 37.0826 36.3403 38.1704 35.3046 38.9887C34.2651 39.8401 33.0666 40.1862 31.7093 40.027C30.4181 39.8757 29.3653 39.2656 28.5509 38.1968ZM64.0803 33.15C62.3419 34.5236 61.3426 36.3195 61.0825 38.5376C60.8225 40.7557 61.3792 42.734 62.7527 44.4725C64.1517 46.281 65.9271 47.3114 68.079 47.5638C70.264 47.82 72.2462 47.2301 74.0255 45.7942C75.7309 44.4168 76.7136 42.619 76.9737 40.4009C77.2337 38.1827 76.6936 36.2064 75.3531 34.4718C73.9542 32.6633 72.1622 31.6309 69.9772 31.3747C67.8253 31.1224 65.8597 31.7142 64.0803 33.15ZM66.1027 35.6526C67.1383 34.8343 68.3017 34.5008 69.5929 34.6522C70.9172 34.8075 72.005 35.4049 72.8564 36.4445C73.6669 37.5464 73.9965 38.7429 73.8451 40.034C73.6859 41.3914 73.0885 42.4792 72.0528 43.2975C70.9802 44.145 69.7817 44.4912 68.4575 44.3359C67.1663 44.1845 66.1135 43.5744 65.2991 42.5056C64.4477 41.4661 64.1016 40.2676 64.2608 38.9102C64.4122 37.6191 65.0261 36.5332 66.1027 35.6526Z" fill="#BF7958"/>
<path d="M27.5623 34.6072C27.4031 35.9646 27.7327 37.1611 28.551 38.1968C29.3654 39.2656 30.4182 39.8757 31.7093 40.0271C33.0667 40.1862 34.2651 39.8401 35.3047 38.9887C36.3404 38.1704 36.9378 37.0826 37.0969 35.7252C37.2483 34.4341 36.9188 33.2375 36.1082 32.1357C35.2899 31.1 34.2021 30.5026 32.8447 30.3434C31.5536 30.192 30.3902 30.5255 29.3545 31.3438C28.3111 32.2283 27.7137 33.3161 27.5623 34.6072ZM69.5929 34.6523C68.3018 34.5009 67.1384 34.8343 66.1027 35.6526C65.0262 36.5332 64.4122 37.6191 64.2608 38.9103C64.1017 40.2676 64.4478 41.4661 65.2992 42.5056C66.1136 43.5744 67.1664 44.1845 68.4575 44.3359C69.7818 44.4912 70.9802 44.1451 72.0529 43.2975C73.0886 42.4792 73.686 41.3914 73.8451 40.0341C73.9965 38.7429 73.667 37.5464 72.8564 36.4445C72.005 35.4049 70.9172 34.8075 69.5929 34.6523Z" fill="#A8603F"/>
<path d="M61.1931 52.1933C64.8229 52.1491 67.0676 50.4657 67.927 47.1432L73.5868 21.6287L32.0216 16.7551L31.4966 48.7113L61.1931 52.1933Z" fill="#BF7958"/>
<path d="M38.5915 33.2826C38.4557 34.4414 38.7034 35.4773 39.3347 36.3903C40.0244 37.3774 40.9652 37.9408 42.157 38.0805C43.2827 38.2125 44.2786 37.8762 45.1449 37.0716C46.0034 36.3332 46.5005 35.3847 46.6364 34.2259C46.7723 33.0672 46.508 32.0294 45.8436 31.1124C45.1831 30.1624 44.29 29.6214 43.1644 29.4894C41.9725 29.3496 40.9289 29.6636 40.0334 30.4312C39.208 31.1734 38.7274 32.1239 38.5915 33.2826ZM41.057 33.7228L41.0862 33.4745C41.2008 32.7831 41.5024 32.2144 41.991 31.7682C42.5166 31.2929 43.1105 31.094 43.7726 31.1716C44.4678 31.2532 45.0162 31.5859 45.4175 32.17C45.7897 32.7171 45.9516 33.3401 45.9032 34.0393L45.874 34.2876C45.7633 34.9458 45.4636 35.498 44.975 35.9441C44.4494 36.4195 43.839 36.6164 43.1438 36.5349C42.4816 36.4573 41.9499 36.1264 41.5485 35.5424C41.1763 34.9953 41.0125 34.3888 41.057 33.7228ZM56.1693 38.3642C56.8922 39.3552 57.833 39.9185 58.9917 40.0544C60.1504 40.1903 61.1298 39.852 61.9299 39.0397C62.8546 38.3091 63.3848 37.3644 63.5207 36.2057C63.6566 35.0469 63.3592 34.0052 62.6286 33.0805C62.0343 32.1382 61.1578 31.5991 59.999 31.4633C58.8403 31.3274 57.7966 31.6413 56.8681 32.4051C56.0427 33.1473 55.562 34.0978 55.4262 35.2566C55.2903 36.4153 55.538 37.4512 56.1693 38.3642ZM60.2658 33.911C60.6711 34.4619 60.8495 35.087 60.8011 35.7861L60.772 36.0344C60.6612 36.6926 60.345 37.2429 59.8233 37.6851C59.3308 38.1644 58.7535 38.3652 58.0913 38.2875C57.4292 38.2099 56.8643 37.8752 56.3967 37.2834C56.0577 36.7402 55.9104 36.1356 55.955 35.4696L55.9957 35.122C56.1026 34.4968 56.3838 33.9592 56.8393 33.5092C57.4311 33.0416 58.0581 32.8467 58.7202 32.9243C59.3823 33.0019 59.8975 33.3308 60.2658 33.911Z" fill="white"/>
<path d="M41.0861 33.4745L41.057 33.7228C41.0125 34.3888 41.1763 34.9953 41.5485 35.5424C41.9498 36.1264 42.4816 36.4573 43.1437 36.5349C43.839 36.6164 44.4494 36.4195 44.975 35.9441C45.4636 35.498 45.7633 34.9458 45.874 34.2876L45.9031 34.0393C45.9515 33.3401 45.7897 32.7171 45.4175 32.17C45.0161 31.5859 44.4678 31.2532 43.7726 31.1716C43.1105 31.094 42.5166 31.2929 41.991 31.7682C41.5024 32.2144 41.2008 32.7831 41.0861 33.4745ZM60.801 35.7861C60.8495 35.087 60.671 34.4619 60.2658 33.911C59.8975 33.3308 59.3823 33.0019 58.7202 32.9243C58.058 32.8467 57.4311 33.0416 56.8392 33.5092C56.3837 33.9592 56.1026 34.4968 55.9957 35.122L55.9549 35.4696C55.9104 36.1356 56.0577 36.7402 56.3967 37.2834C56.8643 37.8752 57.4292 38.2099 58.0913 38.2875C58.7534 38.3652 59.3307 38.1644 59.8232 37.6851C60.345 37.2429 60.6612 36.6926 60.7719 36.0344L60.801 35.7861Z" fill="#3C3E41"/>
<path d="M48.4433 31.2662L48.9739 28.4589L38.3056 26.7046L37.8247 29.5177L48.4433 31.2662ZM55.0324 29.1693L54.8991 32.0232L65.6342 32.7785L65.8171 29.9304L55.0324 29.1693Z" fill="#3C3E41"/>
<path d="M50.1933 39.5262C47.8427 39.2506 45.8001 39.4977 44.0653 40.2676C42.4415 40.9498 41.4603 41.8752 41.122 43.0437C41.0363 43.2015 41.015 43.3836 41.0579 43.59C41.1047 43.7633 41.1866 43.9239 41.3035 44.0718C41.4204 44.2198 41.5762 44.322 41.7709 44.3784C44.5676 45.1426 47.2881 45.126 49.9323 44.3285C52.2872 45.7121 54.93 46.3576 57.8607 46.2649C58.0632 46.2551 58.2385 46.1918 58.3864 46.0749C58.5344 45.958 58.6512 45.8206 58.7368 45.6629C58.8263 45.472 58.8642 45.2919 58.8505 45.1224C58.7585 43.9034 58.0015 42.7743 56.5795 41.7349C55.0368 40.5808 53.1067 39.8678 50.7892 39.5961C50.6899 39.5844 50.5906 39.5728 50.4913 39.5611C50.3919 39.5495 50.2926 39.5378 50.1933 39.5262Z" fill="#3C3E41"/>
<path d="M52.9859 39.7529C53.7024 39.3671 54.0975 38.8596 54.1713 38.2306C54.2412 37.6347 53.9741 37.0496 53.3702 36.4754C52.7586 35.9674 51.9727 35.6571 51.0126 35.5445C50.0856 35.4358 49.2658 35.5578 48.5532 35.9106C47.8329 36.3296 47.4378 36.837 47.3679 37.4329C47.2941 38.0619 47.5612 38.647 48.1689 39.1881C48.7728 39.7624 49.5383 40.1038 50.4653 40.2125C51.4254 40.3251 52.2656 40.1719 52.9859 39.7529Z" fill="#955435"/>
<path d="M32.7579 17.3448L32.7083 17.339C32.0345 17.3607 31.4494 17.6277 30.953 18.1401C30.4644 18.5862 30.231 19.1461 30.2526 19.8199L30.2764 35.9323C30.2689 36.5691 30.5028 37.1503 30.9782 37.6759C31.4613 38.1353 32.0397 38.3541 32.7135 38.3324L32.7632 38.3383C33.4331 38.3497 33.9977 38.1138 34.4571 37.6307C34.9165 37.1476 35.1538 36.5545 35.1691 35.8515L35.1337 19.8385C35.1159 19.1316 34.8654 18.5485 34.3823 18.0891C33.9323 17.6336 33.3908 17.3855 32.7579 17.3448ZM70.9319 22.3746C70.3887 22.7137 70.0267 23.225 69.8458 23.9086L66.1071 39.4791C65.9594 40.1666 66.0531 40.7985 66.3883 41.3747C66.7235 41.951 67.2182 42.3111 67.8726 42.4549L67.9223 42.4608C68.5396 42.6338 69.1365 42.5528 69.7127 42.2176C70.3299 41.8201 70.7085 41.3107 70.8484 40.6895L74.5988 25.0196C74.7757 24.3692 74.6781 23.7704 74.306 23.2233C73.9416 22.6101 73.4342 22.2149 72.7837 22.038L72.734 22.0322C72.0758 21.9214 71.475 22.0356 70.9319 22.3746Z" fill="#3C3E41"/>
<path d="M67.372 24.8267C71.7688 23.9663 74.072 22.6421 74.2816 20.8544C74.4874 19.0997 72.5374 17.4112 68.4318 15.7887C64.3923 14.1739 59.3668 13.098 53.3551 12.561C47.4058 12.0647 42.2327 12.2469 37.8359 13.1074C33.4683 14.0049 31.1817 15.3309 30.976 17.0856C30.7663 18.8733 32.6997 20.5599 36.7762 22.1454C40.8779 23.801 45.9035 24.877 51.8528 25.3732C57.8645 25.9102 63.0376 25.7281 67.372 24.8267Z" fill="#3C3E41"/>
<path d="M6.61031 57.7478L7.46871 57.3377C11.4145 56.0625 14.8556 56.0069 17.792 57.171C11.5985 53.4603 7.84948 53.6435 6.54498 57.7207L6.61031 57.7478Z" fill="#A8603F"/>
<path d="M21.3596 69.1694C22.1782 68.7939 22.4024 68.1597 22.0322 67.2667L17.792 57.171C14.8556 56.0069 11.4145 56.0625 7.46869 57.3377L6.61029 57.7477L6.54495 57.7207C5.51607 58.1112 4.43838 58.5581 3.31187 59.0612L2.94238 59.2144C2.08022 59.5719 1.80047 60.4637 2.10312 61.8899C2.47637 64.0085 3.0614 65.9851 3.85821 67.8198C6.0594 73.0416 11.6161 73.6063 20.5283 69.5141L21.3596 69.1694Z" fill="#BF7958"/>
<defs>
<radialGradient id="paint0_radial_26_31" cx="0" cy="0" r="1" gradientUnits="userSpaceOnUse" gradientTransform="translate(49.0544 50.7852) scale(20.4816 13.5875)">
<stop stop-opacity="0.301961"/>
<stop offset="1" stop-opacity="0"/>
</radialGradient>
</defs>
</svg>
