<svg width="80" height="80" viewBox="0 0 80 80" fill="none" xmlns="http://www.w3.org/2000/svg">
<path d="M80 14C79.8333 7.33333 76.3167 4 69.45 4H10.5C3.66667 4 0.166667 7.33333 0 14V69.95C0.166667 76.65 3.66667 80 10.5 80H69.45C76.3167 80 79.8333 76.65 80 69.95V14Z" fill="url(#paint0_linear_16_29)"/>
<path d="M80 10.5C80 3.5 76.4833 0 69.45 0H10.5C3.5 0 0 3.5 0 10.5V14C0.166667 7.33333 3.66667 4 10.5 4H69.45C76.3167 4 79.8333 7.33333 80 14V10.5Z" fill="url(#paint1_linear_16_29)"/>
<path d="M25.1615 31.5667C22.3949 31.5667 20.0449 32.55 18.1115 34.5167C16.1449 36.4833 15.1615 38.8333 15.1615 41.5667C15.1615 44.3333 16.1449 46.6833 18.1115 48.6167C20.0449 50.5833 22.3949 51.5667 25.1615 51.5667C27.9282 51.5667 30.2782 50.5833 32.2115 48.6167C34.1782 46.6833 35.1615 44.3333 35.1615 41.5667C35.1615 38.8333 34.1782 36.4833 32.2115 34.5167C30.2782 32.55 27.9282 31.5667 25.1615 31.5667Z" fill="white"/>
<path d="M25.1615 35.5667C23.5282 35.5667 22.1282 36.1667 20.9615 37.3667C19.7615 38.5333 19.1615 39.9333 19.1615 41.5667C19.1615 43.2333 19.7615 44.65 20.9615 45.8167C22.1282 46.9833 23.5282 47.5667 25.1615 47.5667C26.8282 47.5667 28.2449 46.9833 29.4115 45.8167C30.5782 44.65 31.1615 43.2333 31.1615 41.5667C31.1615 39.9333 30.5782 38.5333 29.4115 37.3667C28.2449 36.1667 26.8282 35.5667 25.1615 35.5667Z" fill="#3D465D"/>
<path d="M55.1615 31.5667C52.3949 31.5667 50.0449 32.55 48.1115 34.5167C46.1449 36.4833 45.1615 38.8333 45.1615 41.5667C45.1615 44.3333 46.1449 46.6833 48.1115 48.6167C50.0449 50.5833 52.3949 51.5667 55.1615 51.5667C57.9282 51.5667 60.2782 50.5833 62.2115 48.6167C64.1782 46.6833 65.1615 44.3333 65.1615 41.5667C65.1615 38.8333 64.1782 36.4833 62.2115 34.5167C60.2782 32.55 57.9282 31.5667 55.1615 31.5667Z" fill="white"/>
<path d="M55.1615 35.5667C53.5282 35.5667 52.1282 36.1667 50.9615 37.3667C49.7615 38.5333 49.1615 39.9333 49.1615 41.5667C49.1615 43.2333 49.7615 44.65 50.9615 45.8167C52.1282 46.9833 53.5282 47.5667 55.1615 47.5667C56.8282 47.5667 58.2449 46.9833 59.4115 45.8167C60.5782 44.65 61.1615 43.2333 61.1615 41.5667C61.1615 39.9333 60.5782 38.5333 59.4115 37.3667C58.2449 36.1667 56.8282 35.5667 55.1615 35.5667Z" fill="#3D465D"/>
<path d="M12.5115 24.2667C11.9449 24.4 11.5449 24.7 11.3115 25.1667C11.0115 25.6333 10.9282 26.15 11.0615 26.7167L12.1115 30.5667C12.2449 31.1333 12.5615 31.5333 13.0615 31.7667C13.4949 32.0667 13.9949 32.15 14.5615 32.0167L33.8615 26.8167C34.3949 26.6833 34.8115 26.3667 35.1115 25.8667C35.3782 25.4333 35.4449 24.9333 35.3115 24.3667L34.2615 20.5167C34.1282 19.95 33.8282 19.5333 33.3615 19.2667C32.8615 19 32.3449 18.9333 31.8115 19.0667L12.5115 24.2667Z" fill="#3D465D"/>
<path d="M48.5116 19.0667C47.9782 18.9333 47.4616 19 46.9616 19.2667C46.4949 19.5333 46.1949 19.95 46.0616 20.5167L45.0116 24.3667C44.8782 24.9333 44.9449 25.4333 45.2116 25.8667C45.5116 26.3667 45.9282 26.6833 46.4616 26.8167L65.7616 32.0167C66.3282 32.15 66.8282 32.0667 67.2616 31.7667C67.7616 31.5333 68.0782 31.1333 68.2116 30.5667L69.2616 26.7167C69.3949 26.15 69.3116 25.6333 69.0116 25.1667C68.7782 24.7 68.3782 24.4 67.8116 24.2667L48.5116 19.0667Z" fill="#3D465D"/>
<path d="M49.5115 57.0666C49.1449 56.7666 48.7615 56.4666 48.3615 56.1666C46.0949 54.4333 43.3615 53.5667 40.1615 53.5667C36.8949 53.5667 34.1115 54.4333 31.8115 56.1666C31.8115 56.2 31.7949 56.2167 31.7615 56.2167C31.3282 56.55 30.9615 56.9 30.6615 57.2667C30.2949 57.6667 30.1282 58.15 30.1615 58.7167C30.1949 59.25 30.4282 59.7 30.8615 60.0666C31.2615 60.4333 31.7449 60.6 32.3115 60.5666C32.8449 60.5333 33.2949 60.3166 33.6615 59.9166C33.8282 59.7166 34.0115 59.5333 34.2115 59.3667C35.8449 58.1667 37.8282 57.5666 40.1615 57.5666C42.4282 57.5666 44.3615 58.1667 45.9615 59.3667L46.0115 59.4166C46.3115 59.6166 46.5949 59.8333 46.8615 60.0666C47.2615 60.4333 47.7449 60.6 48.3115 60.5666C48.8449 60.5333 49.2949 60.3166 49.6615 59.9166C50.0282 59.4833 50.1949 59 50.1615 58.4667C50.1282 57.9 49.9115 57.4333 49.5115 57.0666Z" fill="#3D465D"/>
<defs>
<linearGradient id="paint0_linear_16_29" x1="40" y1="-1.09798e-07" x2="40" y2="80" gradientUnits="userSpaceOnUse">
<stop stop-color="#FFCD59"/>
<stop offset="1" stop-color="#F7A41B"/>
</linearGradient>
<linearGradient id="paint1_linear_16_29" x1="39.75" y1="-0.25" x2="39.75" y2="43.25" gradientUnits="userSpaceOnUse">
<stop stop-color="#FFE383"/>
<stop offset="1" stop-color="#FFB43C"/>
</linearGradient>
</defs>
</svg>
