<svg width="80" height="80" viewBox="0 0 80 80" fill="none" xmlns="http://www.w3.org/2000/svg">
<path d="M80 14C79.8333 7.33333 76.3167 4 69.45 4H10.5C3.66667 4 0.166667 7.33333 0 14V69.95C0.166667 76.65 3.66667 80 10.5 80H69.45C76.3167 80 79.8333 76.65 80 69.95V14Z" fill="url(#paint0_linear_1_949)"/>
<path d="M80 10.5C80 3.5 76.4833 0 69.45 0H10.5C3.5 0 0 3.5 0 10.5V14C0.166667 7.33333 3.66667 4 10.5 4H69.45C76.3167 4 79.8333 7.33333 80 14V10.5Z" fill="url(#paint1_linear_1_949)"/>
<path d="M32.0499 35.95C30.1166 33.9833 27.7666 33 24.9999 33C22.2333 33 19.8833 33.9833 17.9499 35.95C15.9833 37.8833 14.9999 40.2333 14.9999 43H34.9999C34.9999 40.2333 34.0166 37.8833 32.0499 35.95Z" fill="white"/>
<path d="M29.2499 38.75C28.0833 37.5833 26.6666 37 24.9999 37C23.3666 37 21.9666 37.5833 20.7999 38.75C19.5999 39.9166 18.9999 41.3333 18.9999 43H30.9999C30.9999 41.3333 30.4166 39.9166 29.2499 38.75Z" fill="#3D465D"/>
<path d="M62.0499 35.95C60.1166 33.9833 57.7666 33 54.9999 33C52.2333 33 49.8833 33.9833 47.9499 35.95C45.9833 37.8833 44.9999 40.2333 44.9999 43H64.9999C64.9999 40.2333 64.0166 37.8833 62.0499 35.95Z" fill="white"/>
<path d="M59.25 38.75C58.0833 37.5833 56.6667 37 55 37C53.3667 37 51.9667 37.5833 50.8 38.75C49.6 39.9166 49 41.3333 49 43H61C61 41.3333 60.4167 39.9166 59.25 38.75Z" fill="#3D465D"/>
<path d="M13.95 35.6L14.75 38.5C14.8833 39.0666 15.1833 39.4833 15.65 39.75C16.1166 40.0166 16.6166 40.0833 17.15 39.95L32.6 35.8C33.1666 35.6666 33.5833 35.35 33.85 34.85C34.1166 34.4166 34.1833 33.9166 34.05 33.35L33.25 30.45C33.1166 29.9166 32.8166 29.5 32.35 29.2C31.8833 28.9666 31.3666 28.9166 30.8 29.05L15.35 33.2C14.8166 33.3333 14.4166 33.6333 14.15 34.1C13.8833 34.5666 13.8166 35.0666 13.95 35.6Z" fill="#3D465D"/>
<path d="M46.2 29.95C46.4333 30.3833 46.8333 30.6666 47.4 30.8L62.85 34.95C63.3833 35.1166 63.9 35.0833 64.4 34.85C64.8333 34.55 65.1166 34.1333 65.25 33.6L66.05 30.7C66.1833 30.1333 66.1333 29.6333 65.9 29.2C65.6 28.7 65.1833 28.3666 64.65 28.2L49.2 24.05C48.6333 23.9166 48.1333 24 47.7 24.3C47.2 24.5333 46.8833 24.9333 46.75 25.5L45.95 28.4C45.8166 28.9333 45.9 29.45 46.2 29.95Z" fill="#3D465D"/>
<path d="M49.9499 49.9C49.4833 49.6 48.9666 49.5333 48.3999 49.7C47.8666 49.8333 47.4499 50.1166 47.1499 50.55C46.8833 50.9166 46.4999 51.2666 45.9999 51.6C44.7666 52.3666 43.3166 52.75 41.6499 52.75C40.8833 52.75 40.1666 52.6833 39.4999 52.55C38.9333 52.45 38.4166 52.55 37.9499 52.85C37.4833 53.0833 37.1833 53.4833 37.0499 54.05C36.9166 54.55 37.0166 55.0333 37.3499 55.5C37.6166 55.9 38.0499 56.1666 38.6499 56.3C39.5499 56.5 40.5499 56.6 41.6499 56.6C44.2166 56.6 46.4333 56 48.2999 54.8L48.2499 54.85C49.3833 54.15 50.2166 53.3666 50.7499 52.5C51.0166 52.0333 51.0833 51.55 50.9499 51.05C50.7833 50.5166 50.4499 50.1333 49.9499 49.9Z" fill="#3D465D"/>
<defs>
<linearGradient id="paint0_linear_1_949" x1="40" y1="-1.09798e-07" x2="40" y2="80" gradientUnits="userSpaceOnUse">
<stop stop-color="#71CF93"/>
<stop offset="1" stop-color="#59B15C"/>
</linearGradient>
<linearGradient id="paint1_linear_1_949" x1="39.75" y1="-0.25" x2="39.75" y2="43.25" gradientUnits="userSpaceOnUse">
<stop stop-color="#85DFAF"/>
<stop offset="1" stop-color="#69C581"/>
</linearGradient>
</defs>
</svg>
