<svg width="87" height="93" viewBox="0 0 87 93" fill="none" xmlns="http://www.w3.org/2000/svg">
<path d="M63.9092 67.6292L63.8624 67.6469C63.0476 67.8482 62.4227 68.3161 61.9878 69.0508C61.7704 69.4181 61.633 69.8086 61.5756 70.2224C61.5376 70.5931 61.5738 70.9714 61.6841 71.3574L62.5669 75.2465L64.0782 84.1902L81.3842 80.4786L80.8551 77.5247L74.2407 72.7562L68.673 74.0064L67.6373 69.8543C67.4049 69.0513 66.9214 68.4323 66.1867 67.9974C65.4832 67.5507 64.724 67.428 63.9092 67.6292ZM66.1408 70.4203C66.2511 70.8062 66.2131 71.177 66.0268 71.5325C65.7976 71.8687 65.49 72.0919 65.1041 72.2022C64.7181 72.3125 64.3474 72.2746 63.9918 72.0883C63.6245 71.8708 63.3857 71.5691 63.2754 71.1832C63.1651 70.7973 63.2342 70.4148 63.4828 70.0356C63.7003 69.6683 64.002 69.4295 64.3879 69.3192C64.7739 69.2088 65.1505 69.2624 65.5178 69.4799C65.8228 69.7209 66.0304 70.0344 66.1408 70.4203Z" fill="#334E63"/>
<path d="M66.0267 71.5325C66.2129 71.177 66.2509 70.8063 66.1406 70.4203C66.0303 70.0344 65.8226 69.7209 65.5177 69.4799C65.1503 69.2624 64.7737 69.2088 64.3878 69.3192C64.0018 69.4295 63.7001 69.6683 63.4827 70.0356C63.2341 70.4148 63.1649 70.7973 63.2752 71.1832C63.3855 71.5691 63.6243 71.8708 63.9917 72.0883C64.3472 72.2746 64.718 72.3126 65.1039 72.2022C65.4898 72.0919 65.7974 71.8687 66.0267 71.5325ZM54.3604 59.9077C53.0365 60.836 52.2324 62.1023 51.9482 63.7065C51.6757 65.342 52.0096 66.8372 52.9497 68.1923C53.878 69.5162 55.1657 70.3299 56.813 70.6336C58.3001 70.8908 59.5462 71.453 60.5513 72.3203L60.569 72.367C61.4147 73.1415 62.0806 74.1014 62.5667 75.2465L61.6839 71.3574C61.5736 70.9714 61.5374 70.5931 61.5754 70.2224C61.6328 69.8087 61.7702 69.4181 61.9877 69.0508C62.4226 68.3161 63.0474 67.8482 63.8623 67.6469L63.909 67.6292C64.7239 67.428 65.483 67.5507 66.1865 67.9974C66.9212 68.4323 67.4047 69.0513 67.6372 69.8544L68.6728 74.0065L74.2405 72.7562C73.4969 70.5071 72.5843 68.518 71.5027 66.7888C68.631 62.4936 64.4122 59.866 58.8461 58.9062C57.1989 58.6026 55.7036 58.9364 54.3604 59.9077Z" fill="#477CA6"/>
<path d="M48.7362 89.5307L43.9644 83.5307H38.1644L38.8736 79.1807C39.0095 78.3473 38.8263 77.6307 38.3242 77.0307C37.822 76.4307 37.1542 76.1307 36.3209 76.1307H36.2709C35.4376 76.1307 34.672 76.4307 33.9742 77.0307C33.6253 77.3307 33.3376 77.664 33.1111 78.0307C32.918 78.3973 32.7888 78.7807 32.7236 79.1807L30.247 92.5307H48.147L48.7362 89.5307ZM36.0356 77.8807C36.4356 77.8807 36.7611 78.0307 37.0122 78.3307C37.2633 78.6307 37.3562 78.9807 37.291 79.3807C37.2258 79.7807 37.0187 80.1307 36.6698 80.4307C36.3209 80.7307 35.9465 80.8807 35.5465 80.8807C35.1465 80.8807 34.8209 80.7307 34.5698 80.4307C34.3187 80.1307 34.2258 79.7807 34.291 79.3807C34.3562 78.9807 34.5633 78.6307 34.9122 78.3307C35.2611 78.0307 35.6356 77.8807 36.0356 77.8807Z" fill="#334E63"/>
<path d="M37.0121 78.3307C36.761 78.0307 36.4355 77.8807 36.0355 77.8807C35.6355 77.8807 35.261 78.0307 34.9121 78.3307C34.5632 78.6307 34.3561 78.9807 34.2909 79.3807C34.2257 79.7807 34.3186 80.1307 34.5697 80.4307C34.8208 80.7307 35.1464 80.8807 35.5464 80.8807C35.9464 80.8807 36.3208 80.7307 36.6697 80.4307C37.0186 80.1307 37.2257 79.7807 37.2909 79.3807C37.3561 78.9807 37.2632 78.6307 37.0121 78.3307ZM46.9295 69.3307C47.1903 67.7307 46.7798 66.364 45.6979 65.2307C44.6494 64.0973 43.2251 63.5307 41.4251 63.5307C39.6584 63.5307 38.0494 64.0973 36.5979 65.2307C35.1465 66.364 34.2903 67.7307 34.0295 69.3307L33.111 78.0307C33.3375 77.664 33.6251 77.3307 33.9741 77.0307C34.6719 76.4307 35.4375 76.1307 36.2708 76.1307H36.3208C37.1541 76.1307 37.8219 76.4307 38.3241 77.0307C38.8262 77.6307 39.0094 78.3473 38.8735 79.1807L38.1643 83.5307H43.9643H44.0143L46.9295 69.3307Z" fill="#477CA6"/>
<path d="M17.205 60.2615C17.9602 60.6974 18.7508 60.9614 19.5768 61.0534C18.212 62.4282 16.9667 64.0186 15.8408 65.8246C15.2787 66.7317 14.4307 67.3005 13.2968 67.5312C12.2373 67.7663 11.2252 67.5861 10.2603 66.9906C9.2955 66.3951 8.66666 65.551 8.37382 64.4582C8.15537 63.3698 8.32723 62.3721 8.8894 61.465C10.5058 58.8949 12.2976 56.6578 14.265 54.7537C14.1887 55.4215 14.2518 56.1122 14.4543 56.826C14.9025 58.3163 15.8194 59.4615 17.205 60.2615ZM22.8297 50.5187C22.2336 50.1745 21.6351 49.9445 21.0342 49.8285C24.2458 48.1422 27.7935 47.1305 31.6774 46.7934C32.819 46.6827 33.8389 46.9828 34.7371 47.6938C35.6352 48.4047 36.1419 49.2938 36.2571 50.361C36.43 51.4616 36.1693 52.4465 35.475 53.3158C34.7685 54.1395 33.8589 54.6151 32.7461 54.7425C30.2172 54.9947 27.8723 55.6231 25.7113 56.6277C25.8797 55.7992 25.8422 54.9308 25.5987 54.0225C25.1383 52.4865 24.2153 51.3186 22.8297 50.5187ZM22.1739 54.3546C22.2227 54.5368 22.2488 54.725 22.2521 54.9193C22.2952 55.4446 22.1751 55.9526 21.8918 56.4433C21.5085 57.1073 20.9526 57.5369 20.2241 57.7321C19.4667 57.9107 18.7415 57.8 18.0487 57.4C17.5291 57.1 17.1339 56.7179 16.8631 56.2537C16.8143 56.0715 16.7654 55.8894 16.7166 55.7073C16.6024 55.3719 16.5375 55.0842 16.522 54.8444C16.5488 54.3979 16.6788 53.9727 16.9122 53.5685C17.2955 52.9046 17.8803 52.4916 18.6665 52.3297C19.3951 52.1345 20.1057 52.2369 20.7985 52.6369C21.2316 52.8868 21.5568 53.1901 21.7744 53.5466C21.9387 53.7954 22.0719 54.0648 22.1739 54.3546Z" fill="#477CA6"/>
<path d="M14.265 54.7537C14.2971 53.9648 14.5217 53.2092 14.9386 52.4869C15.7053 51.159 16.8771 50.2959 18.4541 49.8977C19.3268 49.6778 20.1868 49.6547 21.0343 49.8285C21.6352 49.9445 22.2337 50.1745 22.8297 50.5187C24.2154 51.3186 25.1384 52.4866 25.5988 54.0225C25.8422 54.9308 25.8797 55.7992 25.7113 56.6277C25.6014 57.2181 25.388 57.7877 25.0712 58.3365C24.3045 59.6644 23.1472 60.5358 21.599 60.9507C20.8967 61.1056 20.2226 61.1398 19.5768 61.0534C18.7508 60.9614 17.9603 60.6974 17.2051 60.2615C15.8194 59.4615 14.9025 58.3163 14.4543 56.826C14.2519 56.1122 14.1888 55.4215 14.265 54.7537ZM22.2521 54.9193C22.2488 54.725 22.2228 54.5368 22.174 54.3546C22.0719 54.0648 21.9387 53.7954 21.7744 53.5466C21.5569 53.1901 21.2316 52.8868 20.7986 52.6369C20.1058 52.2369 19.3951 52.1345 18.6666 52.3297C17.8803 52.4916 17.2955 52.9046 16.9122 53.5685C16.6789 53.9727 16.5488 54.3979 16.5221 54.8444C16.5375 55.0842 16.6024 55.3719 16.7167 55.7073C16.7655 55.8894 16.8143 56.0715 16.8631 56.2537C17.1339 56.7179 17.5292 57.1 18.0488 57.4C18.7416 57.8 19.4667 57.9107 20.2241 57.7321C20.9526 57.5369 21.5086 57.1073 21.8919 56.4434C22.1752 55.9526 22.2953 55.4446 22.2521 54.9193Z" fill="#334E63"/>
<path d="M70.1493 30.9257C69.2839 30.8189 68.4529 30.8842 67.6565 31.1218C68.3768 29.3235 68.903 27.3733 69.2351 25.2712C69.3988 24.2167 69.9577 23.3621 70.9118 22.7074C71.7956 22.0776 72.7978 21.8486 73.9185 22.0206C75.0392 22.1925 75.9475 22.7244 76.6435 23.6164C77.2692 24.5332 77.5002 25.5189 77.3364 26.5735C76.8508 29.5705 76.0736 32.3293 75.005 34.85C74.8147 34.2054 74.4871 33.5941 74.0223 33.0158C73.0282 31.8184 71.7372 31.1217 70.1493 30.9257ZM68.7712 42.0907C69.4543 42.175 70.0951 42.1534 70.6936 42.0257C68.3943 44.8313 65.5224 47.1469 62.0779 48.9725C61.0699 49.5198 60.0138 49.6413 58.9094 49.337C57.8051 49.0328 56.9917 48.4118 56.4693 47.4741C55.8808 46.5283 55.7366 45.5197 56.0367 44.4484C56.3659 43.4143 57.0179 42.6216 57.9927 42.0702C60.2229 40.8514 62.1369 39.358 63.7347 37.5899C63.9028 38.4184 64.2762 39.2034 64.8546 39.9448C65.8778 41.1794 67.1833 41.8947 68.7712 42.0907ZM67.8785 38.3029C67.7625 38.1543 67.6651 37.9911 67.5863 37.8134C67.3416 37.3466 67.254 36.832 67.3234 36.2696C67.4173 35.5088 67.7616 34.8963 68.3562 34.4324C68.9839 33.9725 69.6948 33.7915 70.4887 33.8895C71.0842 33.963 71.5972 34.1607 72.0277 34.4825C72.1437 34.6312 72.2596 34.7798 72.3756 34.9285C72.6117 35.1927 72.7837 35.4323 72.8915 35.6471C73.041 36.0686 73.0871 36.5109 73.03 36.974C72.9361 37.7349 72.5587 38.3432 71.8979 38.799C71.3033 39.263 70.609 39.446 69.815 39.348C69.3188 39.2867 68.901 39.1344 68.5616 38.891C68.3133 38.726 68.0856 38.53 67.8785 38.3029Z" fill="#477CA6"/>
<path d="M75.005 34.85C75.2832 35.589 75.3712 36.3723 75.2691 37.2C75.0812 38.7218 74.339 39.9736 73.0423 40.9554C72.3246 41.4984 71.5416 41.8552 70.6935 42.0257C70.095 42.1534 69.4542 42.175 68.7711 42.0907C67.1832 41.8947 65.8777 41.1794 64.8546 39.9448C64.2761 39.2034 63.9028 38.4185 63.7347 37.5899C63.6056 37.0034 63.5798 36.3957 63.6574 35.7668C63.8453 34.245 64.571 32.9912 65.8346 32.0052C66.4209 31.5887 67.0282 31.2942 67.6565 31.1218C68.4529 30.8842 69.2838 30.8189 70.1492 30.9257C71.7372 31.1217 73.0282 31.8184 74.0223 33.0159C74.4871 33.5941 74.8147 34.2055 75.005 34.85ZM67.5862 37.8134C67.6651 37.9911 67.7625 38.1543 67.8785 38.3029C68.0855 38.53 68.3132 38.726 68.5615 38.891C68.9009 39.1344 69.3188 39.2868 69.815 39.348C70.6089 39.446 71.3032 39.263 71.8979 38.799C72.5587 38.3432 72.936 37.7349 73.0299 36.974C73.0871 36.5109 73.0409 36.0686 72.8915 35.6471C72.7836 35.4323 72.6117 35.1927 72.3756 34.9285C72.2596 34.7798 72.1436 34.6312 72.0276 34.4825C71.5972 34.1607 71.0842 33.963 70.4887 33.8895C69.6948 33.7915 68.9839 33.9725 68.3562 34.4324C67.7616 34.8964 67.4173 35.5088 67.3234 36.2697C67.254 36.832 67.3416 37.3466 67.5862 37.8134Z" fill="#334E63"/>
<path d="M31.6662 51.9933C32.7277 50.5209 33.1029 48.8983 32.7917 47.1254C32.4806 45.3525 31.5753 43.9546 30.0759 42.9317C28.6094 41.903 26.9896 41.5443 25.2167 41.8554C23.4438 42.1665 22.0594 43.0525 21.0636 44.5133C20.0349 45.9798 19.6762 47.5996 19.9873 49.3725C20.2984 51.1454 21.1873 52.5462 22.6538 53.5749C24.0876 54.6093 25.6909 54.9709 27.4638 54.6598C29.2367 54.3487 30.6375 53.4598 31.6662 51.9933ZM65.2039 46.1077C66.2325 44.6411 66.5913 43.0214 66.2802 41.2485C65.969 39.4755 65.0802 38.0747 63.6136 37.0461C62.1471 36.0174 60.5274 35.6587 58.7544 35.9698C56.9815 36.2809 55.5971 37.1669 54.6013 38.6277C53.5398 40.1 53.1646 41.7226 53.4758 43.4955C53.7869 45.2684 54.6922 46.6664 56.1915 47.6893C57.6253 48.7237 59.2286 49.0853 61.0015 48.7742C62.7744 48.4631 64.1752 47.5742 65.2039 46.1077Z" fill="#334E63"/>
<path d="M61.0858 70.0805C61.7803 68.6387 61.9703 66.8286 61.6557 64.6502L32.2056 69.8185C32.6515 71.9739 33.4465 73.6111 34.5905 74.7302L61.0858 70.0805Z" fill="#5393C5"/>
<path d="M54.2414 60.8749C54.8744 59.2747 55.0295 57.5554 54.7068 55.7168C54.2459 53.0902 52.9319 51.0026 50.7649 49.4538C48.5651 47.9108 46.1519 47.3698 43.5254 47.8307C40.8988 48.2917 38.8141 49.6221 37.2711 51.8219C35.7281 54.0217 35.187 56.4349 35.648 59.0615C35.9706 60.9 36.7184 62.461 37.8912 63.7442L31.3412 64.8937L32.2055 69.8185L61.6556 64.6502L60.7914 59.7254L54.2414 60.8749ZM49.9081 54.9852L49.1904 60.4414C49.1806 60.5785 49.1187 60.7078 49.0047 60.8294C48.8906 60.9509 48.7515 61.0261 48.5874 61.0549L43.4164 61.9624C43.285 61.9854 43.1451 61.9592 42.9965 61.8838C42.815 61.8141 42.6964 61.7165 42.6405 61.5909L40.1078 56.7051C40.0462 56.5467 40.0174 56.3825 40.0214 56.2126C40.064 56.0698 40.1395 55.9212 40.2477 55.7668L43.9386 51.9209C44.0198 51.8051 44.1425 51.7328 44.3066 51.704C44.438 51.681 44.5943 51.7043 44.7758 51.774L49.5063 54.142C49.6279 54.256 49.733 54.3729 49.8217 54.4927C49.8833 54.6511 49.9122 54.8153 49.9081 54.9852Z" fill="#334E63"/>
<path d="M49.1901 60.4415L49.9078 54.9852C49.9119 54.8153 49.883 54.6512 49.8214 54.4928C49.7327 54.373 49.6276 54.256 49.506 54.142L44.7755 51.774C44.594 51.7043 44.4377 51.681 44.3063 51.704C44.1422 51.7328 44.0195 51.8051 43.9383 51.9209L40.2475 55.7668C40.1392 55.9212 40.0637 56.0698 40.0211 56.2126C40.0171 56.3825 40.0459 56.5467 40.1075 56.7051L42.6402 61.5909C42.6961 61.7165 42.8147 61.8141 42.9962 61.8838C43.1448 61.9592 43.2847 61.9854 43.4161 61.9624L48.5871 61.0549C48.7512 61.0261 48.8903 60.9509 49.0044 60.8294C49.1184 60.7079 49.1803 60.5785 49.1901 60.4415Z" fill="#FF6699"/>
<path d="M61.6156 45.6206C61.8603 42.1933 60.819 40.5993 58.492 40.8385L53.2225 41.7632C53.211 41.6975 53.1966 41.6155 53.1793 41.517C53.1833 41.3471 53.1709 41.18 53.1421 41.0159C52.71 38.5535 51.337 36.6115 49.0231 35.1901C46.6609 33.8787 44.0351 33.4765 41.1459 33.9835C38.2567 34.4905 35.9248 35.7627 34.1503 37.8001C32.4587 39.9245 31.8289 42.2179 32.2611 44.6803C32.2899 44.8445 32.3351 45.0057 32.3967 45.1641C32.414 45.2626 32.4448 45.3418 32.4892 45.4017L27.4167 46.2919C24.9969 46.5812 24.4458 48.4547 25.7633 51.9123L31.3411 64.8937L37.891 63.7442C36.7182 62.461 35.9705 60.9 35.6478 59.0615C35.1869 56.4349 35.7279 54.0217 37.2709 51.8219C38.8139 49.6221 40.8987 48.2917 43.5252 47.8307C46.1518 47.3698 48.565 47.9108 50.7648 49.4538C52.9318 51.0026 54.2458 53.0902 54.7067 55.7168C55.0294 57.5554 54.8742 59.2747 54.2413 60.8749L60.7912 59.7254L61.6156 45.6206Z" fill="#477CA6"/>
<path d="M58.5533 29.7807C55.0712 27.1807 50.8524 25.8807 45.8971 25.8807C40.9418 25.8807 36.6784 27.1807 33.107 29.7807C29.6249 32.4473 27.8838 35.6307 27.8838 39.3307C27.8838 43.0307 29.6249 46.1807 33.107 48.7807C36.6784 51.4473 40.9418 52.7807 45.8971 52.7807C50.8524 52.7807 55.0712 51.4473 58.5533 48.7807C62.1247 46.1807 63.9104 43.0307 63.9104 39.3307C63.9104 35.6307 62.1247 32.4473 58.5533 29.7807Z" fill="url(#paint0_radial_26_224)"/>
<path d="M58.0048 30.0791C61.3941 26.6353 63.0577 22.4969 62.9956 17.664C62.9335 12.8311 61.1639 8.72023 57.6868 5.33132C54.2096 1.94241 50.0546 0.279011 45.2217 0.341109C40.3888 0.403207 36.2779 2.17282 32.889 5.64995C29.5001 9.12708 27.8367 13.2821 27.8988 18.115C27.9609 22.9479 29.7303 27.0421 33.207 30.3977C36.6846 33.8199 40.8398 35.5 45.6727 35.4379C50.5056 35.3758 54.6163 33.5895 58.0048 30.0791ZM55.3963 17.7617C55.4314 20.4947 54.4948 22.8403 52.5865 24.7983C50.6453 26.79 48.3081 27.8035 45.5751 27.8386C42.842 27.8737 40.4962 26.9204 38.5378 24.9788C36.5465 23.0709 35.5332 20.7504 35.4981 18.0173C35.463 15.2843 36.4163 12.9385 38.3579 10.9801C40.2658 8.98875 42.5863 7.97553 45.3194 7.94041C48.0525 7.9053 50.4149 8.85835 52.4066 10.7996C54.3646 12.7079 55.3612 15.0286 55.3963 17.7617Z" fill="#BFD4E5"/>
<path d="M52.5863 24.7983C54.4946 22.8403 55.4312 20.4948 55.3961 17.7617C55.361 15.0286 54.3645 12.7079 52.4065 10.7996C50.4147 8.85835 48.0523 7.9053 45.3192 7.94042C42.5861 7.97553 40.2656 8.98875 38.3577 10.9801C36.4161 12.9385 35.4628 15.2843 35.498 18.0173C35.5331 20.7504 36.5463 23.0709 38.5376 24.9788C40.496 26.9204 42.8418 27.8737 45.5749 27.8386C48.308 27.8035 50.6451 26.79 52.5863 24.7983Z" fill="white"/>
<path d="M29.8571 7.08902C29.2285 7.46379 28.819 8.01909 28.6284 8.75493L26.534 16.9824C26.3434 17.7183 26.4359 18.4338 26.8116 19.129C27.253 19.7567 27.8416 20.1659 28.5775 20.3564L28.6274 20.3558C29.3633 20.5464 30.0624 20.4707 30.7247 20.1288C31.3857 19.687 31.8115 19.0981 32.0021 18.3623L34.0465 10.1354C34.2371 9.39958 34.1281 8.70093 33.7196 8.03946C33.3444 7.37757 32.8055 6.95113 32.103 6.76014L32.053 6.76078C31.3172 6.57022 30.5852 6.67963 29.8571 7.08902Z" fill="#477CA6"/>
<path d="M62.1754 8.32387C61.966 7.59318 61.5423 7.04858 60.9044 6.69008C60.1659 6.29954 59.4314 6.20897 58.7007 6.41838L58.6507 6.41902C57.92 6.62842 57.3756 7.06878 57.0176 7.7401C56.6262 8.41184 56.5352 9.11307 56.7446 9.84376L59.0497 18.0147C59.2591 18.7454 59.6999 19.3232 60.3721 19.7479C61.043 20.0726 61.7438 20.1303 62.4745 19.9209L62.5245 19.9202C63.2218 19.7113 63.7831 19.2874 64.2082 18.6485C64.5659 17.9439 64.64 17.2262 64.4306 16.4955L62.1754 8.32387Z" fill="#477CA6"/>
<path d="M21.4578 26.6484C19.9114 28.235 19.1523 30.1282 19.1806 32.328C19.2088 34.5278 20.0161 36.3843 21.6023 37.8973C23.2227 39.4766 25.1162 40.2524 27.2826 40.2245C29.4824 40.1963 31.372 39.3719 32.9513 37.7515C34.4648 36.1986 35.2074 34.3223 35.1791 32.1225C35.1508 29.9227 34.3601 28.0494 32.8067 26.5025C31.1863 24.9232 29.2762 24.1477 27.0764 24.176C24.9099 24.2038 23.0371 25.028 21.4578 26.6484ZM23.8738 35.668C22.9286 34.7467 22.4474 33.6195 22.4303 32.2863C22.4136 30.9864 22.8656 29.8472 23.7865 28.8686C24.7077 27.9234 25.8183 27.4424 27.1182 27.4257C28.4847 27.4081 29.6406 27.86 30.5858 28.7812C31.5315 29.7358 32.0127 30.8631 32.0294 32.1629C32.0465 33.4962 31.5945 34.6354 30.6732 35.5806C29.7524 36.5592 28.6087 37.0573 27.2422 37.0748C25.9423 37.0915 24.8195 36.6226 23.8738 35.668ZM64.073 23.7006C61.9066 23.7285 60.0337 24.5526 58.4544 26.173C56.908 27.7596 56.1489 29.6529 56.1772 31.8527C56.2055 34.0525 57.0127 35.9089 58.5989 37.422C60.2193 39.0013 62.1128 39.777 64.2792 39.7492C66.479 39.7209 68.3686 38.8965 69.9479 37.2761C71.4614 35.7232 72.204 33.8469 72.1757 31.6471C72.1475 29.4473 71.3567 27.574 69.8033 26.0272C68.1829 24.4479 66.2728 23.6724 64.073 23.7006ZM64.2388 36.5994C62.9389 36.6161 61.8161 36.1472 60.8704 35.1926C59.8919 34.2718 59.394 33.1448 59.3769 31.8116C59.3602 30.5117 59.8289 29.3722 60.7831 28.3932C61.7043 27.448 62.8149 26.967 64.1148 26.9503C65.448 26.9332 66.6039 27.385 67.5825 28.3059C68.5281 29.2605 69.0093 30.3877 69.026 31.6876C69.0431 33.0208 68.5911 34.16 67.6698 35.1052C66.7157 36.0842 65.572 36.5823 64.2388 36.5994Z" fill="#5393C5"/>
<path d="M22.4303 32.2863C22.4475 33.6195 22.9286 34.7467 23.8739 35.668C24.8195 36.6226 25.9423 37.0915 27.2422 37.0748C28.6087 37.0573 29.7524 36.5592 30.6733 35.5806C31.5945 34.6354 32.0466 33.4962 32.0294 32.1629C32.0127 30.8631 31.5316 29.7358 30.5859 28.7812C29.6406 27.86 28.4848 27.4081 27.1182 27.4257C25.8183 27.4424 24.7078 27.9234 23.7865 28.8686C22.8657 29.8472 22.4136 30.9864 22.4303 32.2863ZM60.8705 35.1926C61.8162 36.1472 62.9389 36.6161 64.2388 36.5994C65.572 36.5823 66.7157 36.0842 67.6699 35.1052C68.5911 34.16 69.0432 33.0208 69.0261 31.6876C69.0094 30.3877 68.5282 29.2605 67.5825 28.3059C66.6039 27.385 65.448 26.9332 64.1148 26.9503C62.8149 26.967 61.7044 27.448 60.7831 28.3932C59.829 29.3722 59.3602 30.5117 59.3769 31.8116C59.3941 33.1448 59.8919 34.2718 60.8705 35.1926Z" fill="#477CA6"/>
<path d="M28.1515 45.5637L36.1508 45.461C36.0335 38.9287 32.8794 34.7355 26.6885 32.8816L28.1515 45.5637ZM58.0488 45.1796C61.6092 44.6671 63.6179 42.7412 64.075 39.4017L64.8625 30.641C58.8696 33.8182 55.7984 38.6747 55.649 45.2104L58.0488 45.1796Z" fill="#334E63"/>
<path d="M64.8623 30.641L66.395 13.7201L24.5488 14.2577L26.6883 32.8816C32.8792 34.7355 36.0333 38.9287 36.1506 45.461L55.6488 45.2104C55.7982 38.6747 58.8693 33.8182 64.8623 30.641Z" fill="#5393C5"/>
<path d="M51.6371 32.6611C53.1835 31.0744 53.9426 29.1812 53.9143 26.9814C53.8856 24.7483 53.0782 22.8752 51.4919 21.3621C49.9053 19.8157 48.0121 19.0566 45.8123 19.0849C43.5791 19.1136 41.706 19.9211 40.193 21.5073C38.6461 23.0606 37.8871 24.9538 37.9158 27.187C37.944 29.3867 38.7515 31.2598 40.3381 32.8062C41.8915 34.3531 43.7847 35.1121 46.0178 35.0834C48.2176 35.0552 50.0907 34.2477 51.6371 32.6611ZM51.2645 27.0154C51.2834 28.482 50.7662 29.7387 49.7129 30.7856C48.6933 31.8655 47.4503 32.4148 45.9838 32.4337C44.4839 32.4529 43.1938 31.9362 42.1136 30.8833C41.0671 29.8633 40.5344 28.6201 40.5155 27.1535C40.4963 25.6537 40.9964 24.3638 42.0159 23.284C43.0696 22.2704 44.3464 21.7539 45.8463 21.7347C47.3128 21.7158 48.5691 22.1997 49.6152 23.1863C50.6955 24.2392 51.2453 25.5156 51.2645 27.0154Z" fill="#477CA6"/>
<path d="M49.7129 30.7856C50.7661 29.7387 51.2834 28.482 51.2645 27.0154C51.2453 25.5156 50.6955 24.2392 49.6152 23.1863C48.5691 22.1997 47.3128 21.7158 45.8463 21.7347C44.3464 21.7539 43.0696 22.2704 42.0159 23.284C40.9964 24.3638 40.4962 25.6537 40.5155 27.1535C40.5344 28.6201 41.067 29.8633 42.1136 30.8833C43.1938 31.9361 44.4839 32.4529 45.9838 32.4337C47.4503 32.4148 48.6933 31.8655 49.7129 30.7856ZM49.0147 27.0443C49.0224 27.6443 48.8122 28.147 48.3841 28.5525C48.023 28.9906 47.5425 29.2134 46.9426 29.2211C46.3426 29.2288 45.8232 29.0188 45.3843 28.5911C44.9792 28.1963 44.7728 27.6989 44.7651 27.0989C44.7574 26.499 44.9508 25.9798 45.3452 25.5414C45.7733 25.1358 46.2874 24.9292 46.8873 24.9215C47.4872 24.9138 47.9731 25.1076 48.3449 25.5028C48.7837 25.9306 49.007 26.4444 49.0147 27.0443Z" fill="#FFCC00"/>
<path d="M48.3839 28.5526C48.812 28.147 49.0222 27.6443 49.0145 27.0443C49.0068 26.4444 48.7835 25.9306 48.3447 25.5028C47.9729 25.1076 47.4871 24.9138 46.8871 24.9215C46.2872 24.9292 45.7731 25.1358 45.345 25.5414C44.9506 25.9798 44.7572 26.499 44.7649 27.0989C44.7726 27.6989 44.979 28.1963 45.3841 28.5911C45.823 29.0188 46.3424 29.2288 46.9424 29.2211C47.5423 29.2134 48.0228 28.9906 48.3839 28.5526Z" fill="white"/>
<path d="M61.2938 29.2367C61.8864 28.6624 62.1776 27.9753 62.1673 27.1754C62.1571 26.3754 61.8481 25.6794 61.2404 25.0871C60.6665 24.5278 59.9796 24.2533 59.1797 24.2635C58.3798 24.2738 57.6835 24.5661 57.0908 25.1404C56.5319 25.7477 56.2576 26.4512 56.2679 27.2512C56.2782 28.0511 56.5702 28.7307 57.1441 29.2901C57.7514 29.849 58.4549 30.1233 59.2549 30.113C60.0548 30.1027 60.7344 29.8106 61.2938 29.2367Z" fill="#477CA6"/>
<path d="M34.5963 29.5798C35.189 29.0055 35.4802 28.3183 35.4699 27.5184C35.4596 26.7185 35.1506 26.0224 34.543 25.4302C33.9691 24.8708 33.2988 24.5961 32.5322 24.6059C31.7323 24.6162 31.036 24.9085 30.4434 25.4828C29.8845 26.0901 29.6101 26.7936 29.6204 27.5936C29.6307 28.3935 29.9228 29.0731 30.4967 29.6325C31.1039 30.1914 31.8075 30.4657 32.6074 30.4554C33.374 30.4455 34.037 30.1537 34.5963 29.5798Z" fill="#477CA6"/>
<path d="M56.2141 19.1513C55.3048 18.4296 54.2001 18.0771 52.9003 18.0938L39.2015 18.2698C37.9016 18.2865 36.7898 18.6675 35.866 19.4127C34.9759 20.1909 34.5377 21.1132 34.5514 22.1798C34.5651 23.2464 35.0266 24.1405 35.936 24.8622C36.8791 25.6168 38.0006 25.9858 39.3005 25.9691L52.9992 25.7931C54.2991 25.7764 55.3941 25.3789 56.2841 24.6008C57.2079 23.8555 57.663 22.9496 57.6493 21.883C57.6356 20.8165 57.1572 19.9059 56.2141 19.1513Z" fill="#5393C5"/>
<path d="M47.1243 39.4695C46.988 39.2379 46.7694 39.0907 46.4686 39.0279L40.6479 37.4526C40.3466 37.3565 40.0469 37.377 39.7486 37.5142C39.5174 37.6838 39.3707 37.9357 39.3083 38.2699C39.2126 38.6045 39.2331 38.9042 39.3699 39.1691C39.5399 39.4337 39.7756 39.614 40.0769 39.7101L45.8975 41.2854C46.1984 41.3482 46.481 41.2946 46.7455 41.1245C46.9771 40.9882 47.1408 40.7528 47.2365 40.4182C47.2989 40.084 47.2615 39.7678 47.1243 39.4695Z" fill="#334E63"/>
<path d="M78.4759 15.6827C78.3849 15.7071 78.3499 15.6676 78.371 15.5644C78.3633 15.4444 78.3783 15.3184 78.4161 15.1863L80.1661 12.1552C80.2161 12.0686 80.3261 11.9781 80.496 11.8838C80.5704 11.8883 80.6509 11.9155 80.7375 11.9655C82.3374 12.9277 83.3814 14.3195 83.8694 16.1408L83.9127 16.1658C84.4251 18.0783 84.2102 19.9171 83.2679 21.6825C82.2801 23.4601 80.8589 24.6217 79.0042 25.1675L78.7993 25.2224C78.9687 24.8924 79.0943 24.5416 79.1761 24.1698C79.515 22.9037 79.3715 21.6854 78.7459 20.515C79.0725 20.2826 79.3363 19.9923 79.5374 19.6441C79.863 18.9468 79.9654 18.2361 79.8446 17.5121C79.8157 17.4954 79.7807 17.456 79.7397 17.3938C79.5733 16.6819 79.1521 16.1115 78.4759 15.6827ZM68.9856 23.0204C68.7766 22.8295 68.5645 22.6301 68.3495 22.4222C66.9496 21.1136 66.2211 19.4421 66.164 17.4077C66.1647 15.4066 66.836 13.6772 68.1779 12.2196C68.1946 12.1907 68.2112 12.1619 68.2279 12.133C69.5776 10.7953 71.1808 10.0851 73.0375 10.0024C73.1575 9.9947 73.2607 10.0158 73.3473 10.0658C73.3884 10.128 73.3984 10.2108 73.3772 10.314L73.541 13.9304C73.5654 14.0214 73.5609 14.0958 73.5276 14.1536C73.4032 14.2357 73.2954 14.289 73.2044 14.3134C72.4848 14.3598 71.855 14.6505 71.3151 15.1856C71.2985 15.2145 71.2818 15.2433 71.2651 15.2722C70.7541 15.8239 70.5052 16.4885 70.5183 17.2658C70.5371 17.8813 70.6919 18.4133 70.9825 18.8617C70.1083 19.6201 69.5067 20.5622 69.1776 21.6879C69.0695 22.1316 69.0055 22.5757 68.9856 23.0204Z" fill="#BFD4E5"/>
<path d="M76.8111 27.3655C75.6171 28.1003 74.32 28.3136 72.9198 28.0055C71.5651 27.6853 70.4998 26.897 69.724 25.6408C69.2475 24.7905 69.0012 23.917 68.9853 23.0204C69.0052 22.5757 69.0692 22.1316 69.1773 21.6879C69.5064 20.5622 70.108 19.6201 70.9822 18.8617C71.1729 18.7209 71.3679 18.5833 71.567 18.4488C72.7899 17.7308 74.0931 17.5402 75.4766 17.8771C76.8435 18.2429 77.8943 19.0228 78.6291 20.2168C78.683 20.3104 78.7219 20.4098 78.7456 20.515C79.3713 21.6854 79.5147 22.9037 79.1758 24.1698C79.094 24.5416 78.9684 24.8924 78.799 25.2224C78.4054 26.1148 77.7428 26.8292 76.8111 27.3655Z" fill="#5393C5"/>
<path d="M8.36782 73.5789C8.45889 73.5545 8.49386 73.5939 8.47273 73.6972C8.48046 73.8171 8.46544 73.9431 8.42764 74.0753L6.67769 77.1064C6.62769 77.193 6.51773 77.2834 6.34779 77.3778C6.27339 77.3733 6.19289 77.3461 6.10629 77.2961C4.50637 76.3339 3.46238 74.9421 2.97432 73.1208L2.93102 73.0958C2.41856 71.1834 2.63345 69.3445 3.57568 67.5791C4.56345 65.8015 5.98467 64.6398 7.83936 64.094L8.04426 64.0391C7.87483 64.369 7.74924 64.7199 7.66748 65.0917C7.32865 66.3578 7.47208 67.5761 8.09779 68.7465C7.77116 68.9789 7.50733 69.2692 7.3063 69.6174C6.98071 70.3147 6.87833 71.0254 6.99915 71.7495C7.02802 71.7661 7.06299 71.8056 7.10406 71.8678C7.27041 72.5796 7.69167 73.15 8.36782 73.5789ZM17.8581 66.2409C18.0671 66.4318 18.2791 66.6311 18.4942 66.8391C19.8941 68.1477 20.6227 69.8192 20.6798 71.8536C20.6792 73.8547 20.0079 75.5841 18.666 77.0417C18.6493 77.0706 18.6327 77.0995 18.616 77.1283C17.2663 78.4661 15.6631 79.1763 13.8064 79.259C13.6864 79.2667 13.5832 79.2456 13.4966 79.1956C13.4555 79.1334 13.4455 79.0507 13.4667 78.9474L13.3029 75.3311C13.2784 75.24 13.2829 75.1656 13.3162 75.1078C13.4406 75.0257 13.5484 74.9724 13.6394 74.948C14.3591 74.9016 14.9888 74.6109 15.5287 74.0758C15.5453 74.0469 15.562 74.018 15.5787 73.9892C16.0896 73.4374 16.3386 72.7729 16.3255 71.9955C16.3066 71.3801 16.1519 70.8481 15.8613 70.3996C16.7354 69.6412 17.337 68.6991 17.6661 67.5734C17.7742 67.1297 17.8382 66.6855 17.8581 66.2409Z" fill="#BFD4E5"/>
<path d="M10.0321 61.8959C11.2261 61.1611 12.5232 60.9478 13.9234 61.2558C15.2781 61.576 16.3434 62.3643 17.1192 63.6205C17.5958 64.4708 17.842 65.3443 17.858 66.2409C17.8381 66.6855 17.7741 67.1297 17.666 67.5734C17.337 68.6991 16.7354 69.6412 15.8612 70.3996C15.6704 70.5404 15.4755 70.678 15.2764 70.8125C14.0535 71.5306 12.7503 71.7212 11.3667 71.3843C9.99984 71.0186 8.949 70.2387 8.21422 69.0447C8.16028 68.9511 8.12144 68.8517 8.09771 68.7465C7.47201 67.5761 7.32857 66.3578 7.66741 65.0917C7.74916 64.7199 7.87476 64.369 8.04419 64.0391C8.43777 63.1467 9.1004 62.4323 10.0321 61.8959Z" fill="#5393C5"/>
<defs>
<radialGradient id="paint0_radial_26_224" cx="0" cy="0" r="1" gradientUnits="userSpaceOnUse" gradientTransform="translate(45.8971 39.3307) scale(18.1975 13.5875)">
<stop stop-opacity="0.301961"/>
<stop offset="1" stop-opacity="0"/>
</radialGradient>
</defs>
</svg>
