<svg width="60" height="98" viewBox="0 0 60 98" fill="none" xmlns="http://www.w3.org/2000/svg">
<path d="M12.804 33.8384L9.10399 33.6384C8.70399 33.6051 8.33732 33.7384 8.00399 34.0384C7.67066 34.3384 7.48733 34.7051 7.45399 35.1384C7.22066 39.8384 5.35399 43.9717 1.85399 47.5384C1.55399 47.7717 1.40399 48.1051 1.40399 48.5384C1.37066 49.0051 1.48732 49.3884 1.75399 49.6884V49.7384C1.78732 49.7051 1.82066 49.6717 1.85399 49.6384C7.02066 45.1384 10.4873 40.1884 12.254 34.7884C12.354 34.4551 12.5373 34.1384 12.804 33.8384Z" fill="#454A51"/>
<path d="M23.2539 34.4384L12.8039 33.8384C12.5372 34.1384 12.3539 34.455 12.2539 34.7884C10.4872 40.1884 7.02057 45.1384 1.85391 49.6384C1.82057 49.6717 1.78724 49.705 1.75391 49.7384C2.05391 50.0384 2.40391 50.2217 2.80391 50.2884C13.8039 51.455 21.1039 46.905 24.7039 36.6384C24.8039 36.2717 24.8206 35.9384 24.7539 35.6384C24.6539 35.305 24.4706 35.0384 24.2039 34.8384C23.9039 34.5717 23.5872 34.4384 23.2539 34.4384Z" fill="#3C3E41"/>
<path d="M46.2041 34.7884C46.1041 34.455 45.9207 34.1384 45.6541 33.8384L35.2041 34.4384C34.8707 34.4384 34.5541 34.5717 34.2541 34.8384C33.9874 35.0384 33.8041 35.305 33.7041 35.6384C33.6374 35.9384 33.6541 36.2717 33.7541 36.6384C37.3541 46.905 44.6541 51.455 55.6541 50.2884C56.0541 50.2217 56.4041 50.0384 56.7041 49.7384C56.6707 49.705 56.6374 49.6717 56.6041 49.6384C51.4374 45.1384 47.9707 40.1884 46.2041 34.7884Z" fill="#3C3E41"/>
<path d="M51.0041 35.1384C50.9707 34.7051 50.7874 34.3384 50.4541 34.0384C50.1207 33.7384 49.7541 33.6051 49.3541 33.6384L45.6541 33.8384C45.9207 34.1384 46.1041 34.4551 46.2041 34.7884C47.9707 40.1884 51.4374 45.1384 56.6041 49.6384C56.6374 49.6717 56.6707 49.7051 56.7041 49.7384V49.6884C56.9707 49.3884 57.0874 49.0051 57.0541 48.5384C57.0541 48.1051 56.9041 47.7717 56.6041 47.5384C53.1041 43.9717 51.2374 39.8384 51.0041 35.1384Z" fill="#454A51"/>
<path d="M22.8421 70.486C24.2091 72.4658 25.2932 73.9743 26.0946 75.0114C26.8959 76.0485 26.8369 77.1209 25.9177 78.2286C25.022 79.2657 23.8789 79.8431 22.4883 79.9609C21.0977 80.0787 19.8838 79.7133 18.8468 78.8648C16.5606 76.9556 14.6987 74.7871 13.2611 72.3594L21.7462 68.4707C22.0761 69.225 22.4414 69.8967 22.8421 70.486Z" fill="#BF7958"/>
<path d="M19.9788 61.1877C20.1673 62.5548 20.3912 63.8157 20.6504 64.9706L11.4935 68.6825C10.9515 67.2919 10.5155 65.8188 10.1856 64.2632C9.52573 61.152 9.31372 57.7344 9.54953 54.0105C9.64386 52.5963 10.2096 51.4179 11.2466 50.4751C12.3073 49.5088 13.5212 49.0728 14.8882 49.1671C16.2788 49.1436 17.4455 49.6504 18.3882 50.6875C19.3074 51.701 19.708 52.903 19.5901 54.2936C19.4486 56.792 19.5782 59.09 19.9788 61.1877Z" fill="#3DBF7B"/>
<path d="M13.2612 72.3594L12.2005 72.7837L10.1855 69.2128L11.4936 68.6825L20.6505 64.9707L21.5343 64.5818L23.0191 67.9051L21.7463 68.4708L13.2612 72.3594Z" fill="#25A863"/>
<path d="M37.6161 70.486C36.2492 72.4658 35.165 73.9743 34.3637 75.0114C33.5624 76.0485 33.6213 77.1209 34.5406 78.2286C35.4362 79.2657 36.5794 79.8431 37.97 79.9609C39.3606 80.0787 40.5744 79.7133 41.6114 78.8648C43.8976 76.9556 45.7595 74.7871 47.1972 72.3594L38.7121 68.4707C38.3821 69.225 38.0168 69.8967 37.6161 70.486Z" fill="#BF7958"/>
<path d="M40.4795 61.1877C40.2909 62.5548 40.0671 63.8157 39.8078 64.9706L48.9647 68.6825C49.5068 67.2919 49.9428 65.8188 50.2727 64.2632C50.9325 61.152 51.1445 57.7344 50.9087 54.0105C50.8144 52.5963 50.2487 51.4179 49.2116 50.4751C48.1509 49.5088 46.9371 49.0728 45.5701 49.1671C44.1795 49.1436 43.0128 49.6504 42.0701 50.6875C41.1509 51.701 40.7502 52.903 40.8681 54.2936C41.0096 56.792 40.8801 59.09 40.4795 61.1877Z" fill="#3DBF7B"/>
<path d="M47.1971 72.3594L48.2577 72.7837L50.2728 69.2128L48.9647 68.6825L39.8078 64.9707L38.9239 64.5818L37.4392 67.9051L38.7119 68.4708L47.1971 72.3594Z" fill="#25A863"/>
<path d="M49.3541 97.4384L49.4542 94.4384H34.5042V97.4384H49.3541Z" fill="white"/>
<path d="M49.4542 94.4384C46.2208 93.5384 44.3042 91.5384 43.7042 88.4384H34.5042V94.4384H49.4542Z" fill="#BFD4E5"/>
<path d="M43.7042 88.4384H43.7542L43.9042 83.4384H34.5042V88.4384H43.7042Z" fill="#BF7958"/>
<path d="M44.3541 74.2384C44.3541 72.6384 43.7208 71.2718 42.4541 70.1384C41.2208 69.0051 39.7041 68.4384 37.9041 68.4384C36.1374 68.4384 34.6208 69.0051 33.3541 70.1384C32.0874 71.2718 31.4541 72.6384 31.4541 74.2384C33.4208 75.8384 34.4374 78.9051 34.5041 83.4384H43.9041L44.3541 74.2384Z" fill="#676AC6"/>
<path d="M11.5541 97.4384L11.4541 94.4384H26.4041V97.4384H11.5541Z" fill="white"/>
<path d="M11.4541 94.4384C14.6874 93.5384 16.6041 91.5384 17.2041 88.4384H26.4041V94.4384H11.4541Z" fill="#BFD4E5"/>
<path d="M17.2041 88.4384H17.1541L17.0041 83.4384H26.4041V88.4384H17.2041Z" fill="#BF7958"/>
<path d="M16.5541 74.2384C16.5541 72.6384 17.1874 71.2718 18.4541 70.1384C19.6874 69.0051 21.2041 68.4384 23.0041 68.4384C24.7708 68.4384 26.2874 69.0051 27.5541 70.1384C28.8208 71.2718 29.4541 72.6384 29.4541 74.2384C27.4874 75.8384 26.4708 78.9051 26.4041 83.4384H17.0041L16.5541 74.2384Z" fill="#676AC6"/>
<path d="M16.704 74.9884C16.6707 76.4217 16.8707 77.9384 17.304 79.5384H42.604C43.0373 77.9384 43.2373 76.4217 43.204 74.9884H16.704Z" fill="#676AC6"/>
<path d="M16.5541 70.0384H19.5041C20.0041 67.2051 18.4874 64.5384 14.9541 62.0384L15.1541 62.8384C15.8541 65.0717 16.3208 67.4717 16.5541 70.0384ZM44.7541 62.8384L44.9541 62.0384C41.4208 64.5384 39.9208 67.2051 40.4541 70.0384H43.4041C43.6374 67.4717 44.0874 65.0717 44.7541 62.8384ZM39.9041 62.4384C39.9041 61.8717 38.9541 61.3717 37.0541 60.9384C35.0874 60.6051 32.7208 60.4384 29.9541 60.4384C27.1874 60.4384 24.8208 60.6051 22.8541 60.9384C20.9541 61.3717 20.0041 61.8717 20.0041 62.4384C20.0041 63.0051 20.9541 63.4551 22.8541 63.7884C24.8208 64.2217 27.1874 64.4384 29.9541 64.4384C32.7208 64.4384 35.0874 64.2217 37.0541 63.7884C38.9541 63.4551 39.9041 63.0051 39.9041 62.4384Z" fill="#25A863"/>
<path d="M44.5541 70.0384H43.4041H40.4541H19.5041H16.5541H15.4041L16.1541 74.9884H16.7041H43.2041H43.8041L44.5541 70.0384Z" fill="#3C3E41"/>
<path d="M48.2041 55.6884C48.8707 52.3217 48.1707 50.5717 46.1041 50.4384C45.9374 50.4384 45.7707 50.4384 45.6041 50.4384H14.3041C11.8707 50.3051 11.0041 52.0551 11.7041 55.6884C13.1707 57.7884 14.3207 60.1717 15.1541 62.8384L14.9541 62.0384C18.4874 64.5384 20.0041 67.2051 19.5041 70.0384H40.4541C39.9207 67.2051 41.4207 64.5384 44.9541 62.0384L44.7541 62.8384C45.5874 60.1717 46.7374 57.7884 48.2041 55.6884ZM37.0541 60.9384C38.9541 61.3717 39.9041 61.8717 39.9041 62.4384C39.9041 63.0051 38.9541 63.4551 37.0541 63.7884C35.0874 64.2217 32.7207 64.4384 29.9541 64.4384C27.1874 64.4384 24.8207 64.2217 22.8541 63.7884C20.9541 63.4551 20.0041 63.0051 20.0041 62.4384C20.0041 61.8717 20.9541 61.3717 22.8541 60.9384C24.8207 60.6051 27.1874 60.4384 29.9541 60.4384C32.7207 60.4384 35.0874 60.6051 37.0541 60.9384Z" fill="#3DBF7B"/>
<path d="M40.5041 50.2884C40.3041 52.4218 39.3041 54.2551 37.5041 55.7884C35.4041 57.5551 32.8874 58.4384 29.9541 58.4384C27.0207 58.4384 24.5041 57.5551 22.4041 55.7884C20.6041 54.2884 19.6207 52.4884 19.4541 50.3884C19.0874 51.2218 18.9041 52.0884 18.9041 52.9884C18.9041 53.1551 18.9207 53.3218 18.9541 53.4884C19.0541 55.5551 20.1041 57.3051 22.1041 58.7384C24.2707 60.3718 26.8874 61.1884 29.9541 61.1884C33.0207 61.1884 35.6541 60.3718 37.8541 58.7384C39.8541 57.3051 40.9041 55.5551 41.0041 53.4884C41.0374 53.3218 41.0541 53.1551 41.0541 52.9884C41.0541 52.0551 40.8707 51.1551 40.5041 50.2884Z" fill="white"/>
<path d="M40.554 49.4884C40.554 47.0218 39.5373 44.8884 37.504 43.0884C35.404 41.3884 32.8873 40.5384 29.954 40.5384C27.0207 40.5384 24.504 41.3884 22.404 43.0884C20.3707 44.8884 19.354 47.0218 19.354 49.4884C19.354 49.6551 19.3707 49.8218 19.404 49.9884C19.404 50.1218 19.4207 50.2551 19.454 50.3884C19.6207 52.4884 20.604 54.2884 22.404 55.7884C24.504 57.5551 27.0207 58.4384 29.954 58.4384C32.8873 58.4384 35.404 57.5551 37.504 55.7884C39.304 54.2551 40.304 52.4218 40.504 50.2884C40.504 50.1884 40.504 50.0884 40.504 49.9884C40.5373 49.8218 40.554 49.6551 40.554 49.4884Z" fill="#BF7958"/>
<path d="M45.099 42.0384C41.1798 39.4384 36.4315 38.1384 30.8542 38.1384C25.2768 38.1384 20.4783 39.4384 16.4586 42.0384C12.5394 44.7051 10.5798 47.8884 10.5798 51.5884C10.5798 55.2884 12.5394 58.4384 16.4586 61.0384C20.4783 63.7051 25.2768 65.0384 30.8542 65.0384C36.4315 65.0384 41.1798 63.7051 45.099 61.0384C49.1186 58.4384 51.1285 55.2884 51.1285 51.5884C51.1285 47.8884 49.1186 44.7051 45.099 42.0384Z" fill="url(#paint0_radial_26_129)"/>
<path d="M52.6708 23.5575C51.8695 18.8106 49.1024 14.8958 44.3694 11.8131C39.2078 8.43469 33.2245 7.05591 26.4194 7.67673C19.6143 8.29754 13.9792 10.7362 9.51416 14.9928C5.45034 18.8781 3.45389 23.2275 3.52482 28.0409C4.3836 33.4185 7.18256 37.8659 11.9217 41.3833C17.1287 45.2596 23.1348 46.8873 29.9399 46.2665C36.745 45.6457 42.3573 42.958 46.777 38.2035C50.8346 33.8836 52.7992 29.0016 52.6708 23.5575Z" fill="#3C3E41"/>
<path d="M52.5887 22.1089C52.0376 16.0673 49.1585 11.1084 43.9514 7.23208C38.7504 3.42216 32.7474 1.82761 25.9423 2.44843C19.1373 3.06924 13.5219 5.72372 9.09615 10.4119C4.70969 15.1634 2.79204 20.5599 3.3432 26.6015C3.38863 27.0994 3.44913 27.5792 3.52473 28.0409C3.45379 23.2275 5.45024 18.8781 9.51407 14.9928C13.9792 10.7362 19.6142 8.29753 26.4193 7.67672C33.2244 7.0559 39.2077 8.43468 44.3693 11.8131C49.1023 14.8958 51.8694 18.8106 52.6707 23.5574C52.6615 23.0897 52.6341 22.6068 52.5887 22.1089Z" fill="#454A51"/>
<path d="M2.7983 35.4877C2.99817 37.6786 3.94936 39.483 5.65189 40.9009C7.36046 42.3851 9.3102 43.0273 11.5011 42.8274C13.6588 42.6306 15.4602 41.6462 16.9052 39.8743C18.323 38.1717 18.932 36.225 18.7321 34.0341C18.5262 31.7768 17.572 29.9392 15.8695 28.5214C14.1307 27.0734 12.1825 26.4478 10.0248 26.6446C7.83388 26.8445 6.03101 27.8123 4.61619 29.548C3.19833 31.2505 2.59237 33.2304 2.7983 35.4877ZM5.98506 35.197C5.86696 33.9024 6.2257 32.6981 7.0613 31.5843C7.90598 30.57 8.99223 30.0023 10.32 29.8812C11.6811 29.757 12.8521 30.1188 13.8332 30.9665C14.8565 31.9108 15.4273 33.0302 15.5454 34.3248C15.6665 35.6527 15.3047 36.8237 14.46 37.838C13.6516 38.8824 12.5669 39.4667 11.2058 39.5909C9.87802 39.712 8.70546 39.3336 7.68817 38.4558C6.6739 37.6111 6.1062 36.5248 5.98506 35.197ZM46.8718 23.2831C44.6809 23.483 42.878 24.4508 41.4632 26.1865C40.0453 27.889 39.4394 29.869 39.6453 32.1262C39.8452 34.3172 40.7964 36.1215 42.4989 37.5394C44.2075 39.0236 46.1572 39.6658 48.3481 39.4659C50.5058 39.2691 52.3072 38.2847 53.7522 36.5128C55.17 34.8102 55.779 32.8635 55.5791 30.6726C55.3732 28.4153 54.419 26.5778 52.7165 25.1599C50.9777 23.7119 49.0295 23.0863 46.8718 23.2831ZM48.0528 36.2294C46.725 36.3505 45.5525 35.9721 44.5352 35.0943C43.5209 34.2496 42.9532 33.1633 42.8321 31.8355C42.714 30.5409 43.0727 29.3367 43.9083 28.2228C44.753 27.2085 45.8392 26.6408 47.167 26.5197C48.4949 26.3986 49.6659 26.7603 50.6802 27.605C51.7035 28.5493 52.2743 29.6687 52.3924 30.9634C52.5135 32.2912 52.1517 33.4622 51.307 34.4765C50.4654 35.524 49.3807 36.1083 48.0528 36.2294Z" fill="#BF7958"/>
<path d="M7.0612 31.5843C6.2256 32.6981 5.86686 33.9024 5.98496 35.197C6.1061 36.5248 6.6738 37.6111 7.68807 38.4557C8.70536 39.3336 9.87792 39.712 11.2057 39.5909C12.5668 39.4667 13.6515 38.8824 14.4599 37.838C15.3046 36.8237 15.6664 35.6527 15.5453 34.3248C15.4272 33.0302 14.8564 31.9108 13.8331 30.9665C12.852 30.1188 11.681 29.757 10.3199 29.8812C8.99213 30.0023 7.90588 30.57 7.0612 31.5843ZM44.5351 35.0943C45.5524 35.9721 46.7249 36.3505 48.0527 36.2294C49.3806 36.1082 50.4653 35.5239 51.3069 34.4765C52.1516 33.4622 52.5134 32.2912 52.3923 30.9634C52.2742 29.6687 51.7034 28.5493 50.6801 27.605C49.6658 26.7603 48.4948 26.3986 47.1669 26.5197C45.8391 26.6408 44.7529 27.2085 43.9082 28.2228C43.0726 29.3367 42.7139 30.5409 42.832 31.8355C42.9531 33.1633 43.5208 34.2496 44.5351 35.0943Z" fill="#A8603F"/>
<path d="M48.3975 38.9091L48.6393 16.2434L6.9624 20.0455L11.3016 42.2933C13.1108 47.0821 16.875 50.1863 22.5943 51.6059C25.4706 52.3142 28.2335 52.514 30.8831 52.2053C33.578 52.0264 36.2591 51.33 38.9265 50.1159C44.3277 47.6818 47.4847 43.9462 48.3975 38.9091Z" fill="#BF7958"/>
<path d="M32.1059 39.1904C32.7606 38.6621 33.0607 38.0992 33.0062 37.5017C32.9517 36.9041 32.5532 36.3882 31.8107 35.9539C31.1074 35.5829 30.2744 35.4413 29.3117 35.5291C28.4155 35.6109 27.655 35.8978 27.0305 36.39C26.412 36.9485 26.13 37.5265 26.1845 38.124C26.2391 38.7215 26.6195 39.2223 27.3258 39.6265C28.0351 40.0639 28.8379 40.2417 29.7342 40.1599C30.6969 40.0721 31.4874 39.7489 32.1059 39.1904Z" fill="#955435"/>
<path d="M16.8224 36.2167C16.8103 36.0839 16.7997 35.9677 16.7906 35.8681C16.6846 34.7063 16.9755 33.6756 17.6633 32.776C18.2335 32.0546 18.9591 31.57 19.8402 31.3222L14.114 31.8446C15.6082 32.8129 16.511 34.2702 16.8224 36.2167ZM23.6402 37.7536C24.0444 37.0473 24.2011 36.1962 24.1102 35.2004C24.0224 34.2377 23.7143 33.429 23.186 32.7743C22.6577 32.1196 22.0449 31.824 21.3478 31.8876C20.6839 31.9482 20.168 32.3467 19.8001 33.0832C19.3989 33.8227 19.2423 34.6738 19.3301 35.6364C19.4209 36.6323 19.729 37.441 20.2543 38.0625C20.7494 38.7202 21.329 39.0188 21.9929 38.9583C22.69 38.8947 23.2391 38.4931 23.6402 37.7536ZM41.8366 33.5832C41.8457 33.6828 41.8563 33.799 41.8684 33.9318C41.8225 31.9611 42.4301 30.366 43.6912 29.1464L38.0148 29.6642C38.9262 29.7484 39.7275 30.0937 40.4188 30.7001C41.258 31.4603 41.7306 32.4214 41.8366 33.5832ZM34.517 34.251C34.6079 35.2468 34.9159 36.0555 35.4412 36.677C35.9364 37.3348 36.5325 37.6318 37.2296 37.5682C37.8935 37.5077 38.426 37.1076 38.8272 36.3681C39.2314 35.6618 39.388 34.8107 39.2972 33.8149C39.2093 32.8522 38.9013 32.0435 38.3729 31.3888C37.8446 30.7341 37.2485 30.437 36.5846 30.4976C35.8875 30.5612 35.3549 30.9612 34.987 31.6977C34.5858 32.4372 34.4292 33.2883 34.517 34.251Z" fill="#3C3E41"/>
<path d="M20.234 31.2361C20.1012 31.2482 19.9699 31.2769 19.8402 31.3222C18.959 31.57 18.2334 32.0546 17.6633 32.776C16.9755 33.6756 16.6846 34.7063 16.7906 35.8681C16.7996 35.9677 16.8102 36.0839 16.8224 36.2166C16.9796 37.2065 17.4416 38.0513 18.2084 38.7512C19.0838 39.5416 20.1024 39.8838 21.2643 39.7778C22.3929 39.6749 23.2996 39.157 23.9844 38.2243C24.7054 37.3217 25.0129 36.2895 24.9069 35.1277C24.8009 33.9658 24.3117 33.0063 23.4393 32.2491C22.597 31.4557 21.6116 31.1104 20.4829 31.2134C20.3834 31.2225 20.3004 31.23 20.234 31.2361ZM24.1102 35.2003C24.201 36.1962 24.0444 37.0473 23.6402 37.7536C23.239 38.4931 22.6899 38.8947 21.9928 38.9582C21.3289 39.0188 20.7494 38.7202 20.2542 38.0625C19.7289 37.441 19.4209 36.6323 19.33 35.6364C19.2422 34.6738 19.3989 33.8227 19.8 33.0832C20.1679 32.3467 20.6839 31.9482 21.3478 31.8876C22.0449 31.824 22.6576 32.1196 23.1859 32.7743C23.7143 33.429 24.0223 34.2377 24.1102 35.2003ZM38.0147 29.6642C37.8789 29.6431 37.7446 29.6386 37.6118 29.6508C37.5122 29.6598 37.4127 29.6689 37.3131 29.678C36.1844 29.781 35.2943 30.2973 34.6427 31.227C33.9218 32.1296 33.6143 33.1618 33.7203 34.3236C33.8263 35.4855 34.3155 36.445 35.1879 37.2022C35.9969 37.9987 36.9657 38.3454 38.0944 38.2424C39.2894 38.1334 40.2459 37.611 40.9639 36.6753C41.5913 35.8482 41.8928 34.9337 41.8684 33.9318C41.8562 33.799 41.8456 33.6828 41.8366 33.5832C41.7306 32.4214 41.258 31.4603 40.4188 30.7001C39.7275 30.0937 38.9261 29.7484 38.0147 29.6642ZM35.4412 36.677C34.9159 36.0555 34.6078 35.2468 34.517 34.251C34.4291 33.2883 34.5858 32.4372 34.9869 31.6977C35.3549 30.9612 35.8874 30.5612 36.5845 30.4976C37.2484 30.437 37.8445 30.7341 38.3729 31.3888C38.9012 32.0435 39.2093 32.8522 39.2971 33.8149C39.388 34.8107 39.2313 35.6618 38.8271 36.3681C38.426 37.1076 37.8935 37.5077 37.2296 37.5682C36.5324 37.6318 35.9363 37.3348 35.4412 36.677Z" fill="white"/>
<path d="M30.0243 42.2421C29.0285 42.333 28.2289 42.7407 27.6255 43.4651C27.0252 44.2228 26.769 45.083 26.8568 46.0456C26.9476 47.0415 27.3553 47.8411 28.0798 48.4445C28.8043 49.0478 29.6644 49.304 30.6603 49.2132C31.623 49.1254 32.406 48.7192 33.0093 47.9947C33.6459 47.2672 33.9187 46.4056 33.8279 45.4097C33.74 44.447 33.3158 43.6489 32.5551 43.0154C31.8306 42.4121 30.987 42.1543 30.0243 42.2421Z" fill="#A8603F"/>
<path d="M49.0678 24.7899L49.3005 16.3338L48.7528 16.3837L48.6755 15.5372L6.1521 19.4166L7.49442 26.9759C14.6193 26.192 19.7733 24.3495 22.9562 21.4483C26.7992 25.4156 30.6671 27.2718 34.5601 27.0171L35.7225 23.7982C40.3553 25.0491 44.8037 25.3797 49.0678 24.7899Z" fill="#3C3E41"/>
<path d="M45.2851 15.7963C44.6873 15.1145 43.9583 14.4614 43.098 13.8369C39.1286 11.0527 33.8078 9.96494 27.1355 10.5736C20.4632 11.1823 15.4421 13.1968 12.0723 16.6171C11.8218 16.8073 11.6242 17.0262 11.4795 17.2737C10.9575 17.7899 10.5413 18.3635 10.2306 18.9943C9.88072 19.5618 9.88998 20.2136 10.2584 20.9499C14.3165 18.1027 20.0967 16.337 27.5988 15.6526C35.0346 14.9742 41.0208 15.6498 45.5573 17.6794C45.7894 16.9218 45.6987 16.2942 45.2851 15.7963Z" fill="#71A2BE"/>
<path d="M13.0325 33.1985C13.3824 32.631 13.4924 32.0017 13.3624 31.3107L12.2017 25.7431L7.27222 26.1928L8.58693 32.3488C8.71389 33.0067 9.08073 33.5422 9.68745 33.9555C10.2549 34.3054 10.8661 34.4003 11.5209 34.2401L11.5707 34.2356C12.2285 34.1086 12.7158 33.7629 13.0325 33.1985Z" fill="#3C3E41"/>
<path d="M44.1845 28.4988C44.1817 29.202 44.4037 29.801 44.8505 30.2958C45.2973 30.7906 45.8557 31.0409 46.5257 31.0467L46.5755 31.0421C47.2485 31.0812 47.8324 30.8773 48.3271 30.4305C48.8491 29.9143 49.1129 29.3212 49.1188 28.6512L49.2978 22.3589L44.3185 22.8132L44.1845 28.4988Z" fill="#3C3E41"/>
<path d="M13.6866 26.0595L13.9092 28.4994L23.0843 26.1561L22.898 24.1146L13.6866 26.0595ZM42.8487 27.6165L42.6261 25.1767L33.2646 24.9261L33.4509 26.9677L42.8487 27.6165Z" fill="#3C3E41"/>
<path d="M49.7635 34.6173C49.5403 35.1063 49.5163 35.5771 49.6915 36.0297L51.0371 39.7729C51.2123 40.2255 51.5278 40.565 51.9835 40.7911C52.4363 40.9841 52.9056 40.9915 53.3914 40.8133L53.4412 40.8088C53.8938 40.6336 54.2332 40.3181 54.4594 39.8624C54.6826 39.3734 54.705 38.886 54.5268 38.4002L53.1857 34.7068C53.0106 34.2541 52.6785 33.9162 52.1895 33.6931C51.7036 33.5031 51.2509 33.4942 50.8315 33.6663L50.7817 33.6709C50.2959 33.8491 49.9565 34.1646 49.7635 34.6173Z" fill="#EEA160"/>
<path d="M9.28154 38.3104C9.0098 37.9001 8.61891 37.6512 8.10886 37.5639L8.05907 37.5684C7.58222 37.478 7.12203 37.5702 6.67849 37.845C6.23798 38.1529 5.97253 38.5453 5.88215 39.0222L5.28131 42.8928C5.19395 43.4028 5.30425 43.8781 5.61221 44.3186C5.91715 44.7259 6.29144 44.9763 6.73509 45.0697L6.78489 45.0652C7.29493 45.1525 7.75513 45.0603 8.16547 44.7886C8.60598 44.4806 8.87143 44.0882 8.96181 43.6114L9.6079 39.6865C9.69829 39.2096 9.5895 38.7509 9.28154 38.3104Z" fill="#EEA160"/>
<defs>
<radialGradient id="paint0_radial_26_129" cx="0" cy="0" r="1" gradientUnits="userSpaceOnUse" gradientTransform="translate(30.8542 51.5884) scale(20.4816 13.5875)">
<stop stop-opacity="0.301961"/>
<stop offset="1" stop-opacity="0"/>
</radialGradient>
</defs>
</svg>
